<?xml version="1.0" encoding="utf-8"?>
<!-- Generator: Adobe Illustrator 16.0.3, SVG Export Plug-In . SVG Version: 6.00 Build 0)  -->
<!DOCTYPE svg PUBLIC "-//W3C//DTD SVG 1.1//EN" "http://www.w3.org/Graphics/SVG/1.1/DTD/svg11.dtd">
<svg version="1.1" id="Layer_1" xmlns="http://www.w3.org/2000/svg" xmlns:xlink="http://www.w3.org/1999/xlink" x="0px" y="0px"
	 width="200px" height="200px" viewBox="0 0 200 200" enable-background="new 0 0 200 200" xml:space="preserve">
<g>
	<path fill="#F7F0F0" d="M99.833,151c-0.001,0-0.002,0-0.004,0c-1.273,0-2.456-0.584-3.33-1.633L12.732,48.845
		c-0.354-0.424-0.296-1.055,0.128-1.409c0.423-0.354,1.055-0.297,1.408,0.127l83.768,100.523c0.488,0.586,1.125,0.913,1.795,0.913
		c0,0,0.001,0,0.002,0c0.668,0,1.306-0.326,1.794-0.91l84.106-100.526c0.353-0.422,0.982-0.482,1.408-0.126
		c0.424,0.354,0.479,0.985,0.125,1.408l-84.105,100.529C102.286,150.421,101.104,151,99.833,151z"/>
	<path fill="none" stroke="#F7F0F0" stroke-width="16" stroke-miterlimit="10" d="M99.833,151c-0.001,0-0.002,0-0.004,0
		c-1.273,0-2.456-0.584-3.33-1.633L12.732,48.845c-0.354-0.424-0.296-1.055,0.128-1.409c0.423-0.354,1.055-0.297,1.408,0.127
		l83.768,100.523c0.488,0.586,1.125,0.913,1.795,0.913c0,0,0.001,0,0.002,0c0.668,0,1.306-0.326,1.794-0.91l84.106-100.526
		c0.353-0.422,0.982-0.482,1.408-0.126c0.424,0.354,0.479,0.985,0.125,1.408l-84.105,100.529
		C102.286,150.421,101.104,151,99.833,151z"/>
</g>
</svg>
