<?xml version="1.0" encoding="utf-8"?>
<!-- Generator: Adobe Illustrator 16.0.3, SVG Export Plug-In . SVG Version: 6.00 Build 0)  -->
<!DOCTYPE svg PUBLIC "-//W3C//DTD SVG 1.1//EN" "http://www.w3.org/Graphics/SVG/1.1/DTD/svg11.dtd">
<svg version="1.1" id="Layer_1" xmlns="http://www.w3.org/2000/svg" xmlns:xlink="http://www.w3.org/1999/xlink" x="0px" y="0px"
	 width="787.498px" height="185.175px" viewBox="0 0 787.498 185.175" enable-background="new 0 0 787.498 185.175"
	 xml:space="preserve">
<polygon fill="#F7ED38" points="787.498,164.654 0,164.654 0,38.641 714.719,38.641 "/>
<path fill="#333333" d="M602.067,122.771c0.489,0,0.84,0.336,0.91,0.729l9.591,40.039c0.141,0.617-0.21,1.232-0.98,1.232h-11.341
	c-0.42,0-0.84-0.223-0.91-0.559l-1.399-8.4c-0.07-0.281-0.351-0.449-0.701-0.449h-3.779c-0.281,0-0.561,0.225-0.631,0.561
	l-1.33,8.232c-0.07,0.393-0.561,0.615-0.91,0.615h-11.551c-0.631,0-0.98-0.391-0.84-0.951l9.381-40.377
	c0.07-0.279,0.42-0.672,0.84-0.672H602.067z M595.906,143.884c-0.14-0.785-0.279-1.289-0.49-1.289c-0.209,0-0.35,0.393-0.489,1.289
	l-0.91,5.318c-0.07,0.281,0.069,0.561,0.42,0.561c2.24,0,2.45,0,2.38-0.504L595.906,143.884z"/>
<path fill="#333333" d="M613.447,123.5c0-0.393,0.35-0.729,0.77-0.729h11.831c0.49,0,0.841,0.225,0.979,0.672l4.201,12.602
	c0.141,0.447,0.35,0.672,0.49,0.672c0.209,0,0.42-0.225,0.42-0.729V123.5c0-0.393,0.35-0.729,0.84-0.729h10.501
	c0.56,0,0.91,0.393,0.91,0.785v40.488c0,0.391-0.28,0.727-0.771,0.727h-13.091c-0.28,0-0.7-0.223-0.771-0.559l-3.08-10.08
	c-0.14-0.561-0.42-0.785-0.63-0.785s-0.351,0.225-0.351,0.785v9.912c0,0.391-0.42,0.727-0.91,0.727h-10.641
	c-0.42,0-0.699-0.336-0.699-0.783V123.5z"/>
<path fill="#CC3333" d="M639.626,164.771c-0.489,0-0.909-0.391-0.909-0.84v-40.6c0-0.279,0.279-0.561,0.629-0.561h11.972
	c0.49,0,0.841,0.225,0.841,0.561v40.713c0,0.336-0.351,0.727-0.841,0.727H639.626z"/>
<path fill="#333333" d="M647.047,164.771c-0.281,0-0.561-0.279-0.561-0.504v-40.936c0-0.279,0.21-0.561,0.561-0.561h18.762
	c0.35,0,0.629,0.225,0.699,0.561l2.101,11.145c0.069,0.391,0.21,0.559,0.351,0.559c0.14,0,0.279-0.223,0.279-0.615l1.68-11.031
	c0.07-0.336,0.351-0.617,0.771-0.617h19.461c0.49,0,0.771,0.225,0.771,0.617v40.824c0,0.336-0.351,0.559-0.771,0.559h-12.671
	c-0.42,0-0.771-0.223-0.771-0.615v-17.527c0-0.449-0.07-0.617-0.209-0.617c-0.141,0-0.281,0.225-0.49,1.121l-3.641,17.191
	c-0.07,0.336-0.42,0.447-0.771,0.447h-7.911c-0.35,0-0.629-0.223-0.77-0.615l-3.221-16.016c-0.209-0.953-0.49-1.121-0.699-1.121
	c-0.211,0-0.351,0.281-0.351,0.729v16.408c0,0.393-0.21,0.615-0.7,0.615H647.047z"/>
<path fill="#333333" d="M716.719,122.771c0.49,0,0.84,0.336,0.91,0.729l9.591,40.039c0.14,0.617-0.21,1.232-0.979,1.232h-11.342
	c-0.42,0-0.84-0.223-0.91-0.559l-1.4-8.4c-0.07-0.281-0.35-0.449-0.699-0.449h-3.781c-0.279,0-0.56,0.225-0.63,0.561l-1.33,8.232
	c-0.069,0.393-0.56,0.615-0.91,0.615h-11.552c-0.629,0-0.979-0.391-0.84-0.951l9.381-40.377c0.07-0.279,0.42-0.672,0.841-0.672
	H716.719z M710.559,143.884c-0.141-0.785-0.281-1.289-0.49-1.289c-0.211,0-0.351,0.393-0.49,1.289l-0.91,5.318
	c-0.07,0.281,0.07,0.561,0.42,0.561c2.24,0,2.45,0,2.381-0.504L710.559,143.884z"/>
<path fill="#333333" d="M729.008,164.771c-0.49,0-0.91-0.391-0.91-0.84v-40.6c0-0.279,0.28-0.561,0.631-0.561h11.971
	c0.49,0,0.84,0.225,0.84,0.561v40.713c0,0.336-0.35,0.727-0.84,0.727H729.008z"/>
<path fill="#333333" d="M762.75,136.324c-0.42,0-0.701-0.168-0.84-0.615c-0.421-1.346-1.121-2.018-2.102-2.018
	c-0.699,0-1.049,0.449-1.049,1.008c0,1.793,3.289,3.809,7.49,6.105c4.551,2.463,7.98,6.496,7.98,10.639
	c0,7.504-5.6,13.496-14.771,13.496c-10.641,0-15.541-6.16-15.541-15.119c0-0.281,0.279-0.561,0.84-0.561l9.66-0.393
	c0.49,0,0.771,0.225,0.841,0.729c0.28,2.24,1.47,4.648,3.15,4.648c0.979,0,1.61-0.504,1.61-1.793c0-1.344-3.92-3.807-8.611-6.832
	c-4.69-3.023-7-7.223-7-11.031c0-5.711,5.32-11.928,14.701-11.928s15.191,5.881,15.191,12.543c0,0.393-0.279,0.729-0.84,0.729
	L762.75,136.324z"/>
<path fill="#333333" d="M34.324,43.132h50.272c17.842,0,30.369,6.373,37.582,19.117c2.061,3.851,3.335,7.512,3.824,10.982
	c-0.488,12.093-8.244,21.341-23.265,27.739c-0.163,0-0.244,0.081-0.244,0.244c5.532,1.411,10.602,4.095,15.212,8.053
	c6.561,5.694,10.087,12.608,10.575,20.743c-0.488,11.063-7.62,19.687-21.394,25.868c-5.694,2.603-12.202,3.905-19.523,3.905H34.08
	c-0.488,0-2.631-3.145-6.426-9.437c-8.896-14.857-13.341-31.074-13.341-48.645C14.313,80.336,20.983,60.813,34.324,43.132z
	 M64.178,72.173v21.801c5.64,0,10.466-2.278,14.479-6.833c1.139-1.355,1.708-2.467,1.708-3.335v-0.732
	c0-5.043-4.637-8.568-13.91-10.575C65.425,72.283,64.666,72.173,64.178,72.173z M64.178,110V131.8h0.407
	c4.881,0,9.463-2.061,13.748-6.183c1.355-1.354,2.034-2.656,2.034-3.904v-1.627c0-3.417-3.227-6.345-9.68-8.785
	C68.354,110.435,66.184,110,64.178,110z"/>
<path fill="#333333" d="M170.233,42.97v48.157c0,6.345,3.525,10.847,10.575,13.503c1.627,0.326,3.01,0.488,4.148,0.488
	c5.857,0,10.358-3.28,13.504-9.843c0.325-1.627,0.488-2.929,0.488-3.905V42.97h28.472c12.635,17.462,18.954,34.464,18.954,51.004
	v1.058c0,17.137-6.21,32.838-18.628,47.1c-11.497,11.769-25.57,17.652-42.219,17.652h-2.115c-19.522,0-35.223-7.862-47.1-23.591
	c-9.002-13.285-13.503-26.22-13.503-38.802v-4.393c0-15.834,6.398-32.511,19.198-50.028H170.233z"/>
<path fill="#333333" d="M298.348,40.286h6.02c16.486,0.868,25.218,2.224,26.193,4.067c4.393,8.786,6.589,16.948,6.589,24.485
	c-0.217,4.881-0.488,7.321-0.813,7.321c-5.478-1.464-10.791-2.196-15.943-2.196c-8.244,0-14.398,1.193-18.466,3.579
	c18.872,6.617,32.022,16.867,39.453,30.749c1.952,5.153,2.928,9.14,2.928,11.958v5.206c0,9.111-4.283,17.6-12.852,25.462
	c-10.521,7.321-22.669,10.981-36.443,10.981h-11.063c-21.26-1.03-31.888-2.929-31.888-5.694c-3.2-8.567-4.799-16.025-4.799-22.37
	c0-0.866,0.217-3.661,0.65-8.379h0.244c4.827,2.008,11.308,3.01,19.441,3.01h0.57c5.531,0,10.385-1.354,14.561-4.067
	c-18.113-6.235-30.207-15.049-36.28-26.438c-2.44-4.446-3.66-8.894-3.66-13.341v-3.254c0-9.707,4.365-18.98,13.096-27.82
	C267.11,44.707,281.265,40.286,298.348,40.286z"/>
<path fill="#333333" d="M416.782,42.4h4.474c4.177,0,6.264,0.516,6.264,1.545c5.966,8.732,10.44,18.331,13.423,28.797
	c1.952,6.996,2.928,11.551,2.928,13.667h-27.332c-6.725,0-11.986,3.552-15.781,10.656v3.661c0.597,6.888,4.88,11.551,12.853,13.991
	c1.192,0.38,2.169,0.57,2.929,0.57h27.576c0,5.26-2.224,13.909-6.671,25.948c-1.843,4.937-4.853,10.848-9.029,17.733
	c-2.331,0.544-4.908,0.814-7.728,0.814h-4.719c-18.709,0-35.792-5.044-51.248-15.131c-16.433-10.791-25.217-24.674-26.356-41.649
	v-4.881c1.14-15.781,9.03-28.878,23.672-39.291c11.931-8.513,25.408-13.611,40.43-15.293C409.026,42.78,413.8,42.4,416.782,42.4z"/>
<path fill="#F7ED38" stroke="#333333" stroke-width="10" d="M501.212,43.132h5.695c17.517,0,32.022,6.129,43.521,18.385
	c6.779,7.375,11.47,17.571,14.072,30.586c0.651,3.201,0.977,6.318,0.977,9.355v2.603c0,18.331-5.179,35.792-15.537,52.388
	c-1.519,2.17-2.387,3.281-2.604,3.335h-28.472v-20.988c0-5.096-2.847-9.163-8.541-12.201c-1.789-0.866-3.796-1.302-6.02-1.302
	c-5.966,0-10.359,3.038-13.179,9.111c-0.704,1.41-1.057,2.875-1.057,4.392v20.988h-29.041c-7.159-8.623-12.418-20.553-15.781-35.793
	c-1.573-6.29-2.359-12.499-2.359-18.628v-3.091c0-10.195,3.714-21.692,11.145-34.492c2.006-3.253,5.45-7.158,10.331-11.714
	C475.046,47.444,487.33,43.132,501.212,43.132z"/>
<path fill="#CC3333" d="M570.422,23.807l40.393-23.32l1.324,2.295c14.135,24.48,23.32,48.883,27.563,73.208l-18.674,10.781
	c-19.244-16.874-35.229-36.332-47.955-58.374L570.422,23.807z M633.67,87.887c3.473-2.005,7.412-2.525,11.816-1.563
	c4.627,1.346,7.768,3.453,9.424,6.321l0.994,1.721c3.174,5.499,2.318,11.57-2.564,18.215c-1.521,1.325-2.664,2.208-3.432,2.651
	l-0.338,0.195c-6.225,3.594-12.674,2.631-19.348-2.887c-0.844-1.043-1.457-1.899-1.844-2.569l-0.58-1.004
	c-2.678-4.637-2.348-10.055,0.99-16.254C629.711,91.29,631.338,89.681,633.67,87.887z"/>
<g>
	<line fill="none" stroke="#2E2E2F" stroke-width="2" x1="505.94" y1="77.763" x2="499.835" y2="82.381"/>
	<line fill="none" stroke="#2E2E2F" stroke-width="2" x1="504.296" y1="82.381" x2="499.835" y2="76.133"/>
</g>
<line fill="none" x1="572.344" y1="38.766" x2="572.344" y2="164.939"/>
<path fill="none" stroke="#323232" d="M579.585,184.282c-0.208-0.008-0.307-0.142-0.301-0.323l0.65-18.787
	c0.008-0.208,0.144-0.386,0.352-0.379l4.651,0.161c4.132,0.144,6.483,2.853,6.319,7.582l-0.167,4.833
	c-0.146,4.21-2.618,7.221-6.646,7.081L579.585,184.282z M586.087,170.847c0.008-0.26-0.063-0.47-0.214-0.605
	c-0.101-0.081-0.306-0.167-0.437-0.171c-0.104-0.004-0.158,0.072-0.164,0.229l-0.299,8.627c-0.006,0.156,0.045,0.21,0.148,0.213
	c0.156,0.006,0.676,0.023,0.702-0.729L586.087,170.847z"/>
<path fill="none" stroke="#323232" d="M595.89,165.145c0.006-0.155,0.168-0.332,0.35-0.326l9.226,0.32
	c0.155,0.005,0.255,0.139,0.25,0.295l-0.162,4.677c-0.005,0.156-0.14,0.256-0.295,0.25l-4.34-0.15
	c-0.104-0.003-0.185,0.072-0.188,0.176l-0.05,1.455c-0.004,0.104,0.098,0.186,0.175,0.188l2.054,0.071
	c0.104,0.003,0.179,0.084,0.175,0.188l-0.163,4.729c-0.005,0.13-0.112,0.23-0.216,0.227l-2.105-0.072
	c-0.104-0.004-0.185,0.071-0.189,0.201l-0.053,1.533c-0.004,0.104,0.072,0.185,0.15,0.188l4.495,0.155
	c0.182,0.007,0.281,0.141,0.276,0.271l-0.167,4.833c-0.005,0.156-0.14,0.281-0.296,0.276l-9.303-0.322
	c-0.156-0.006-0.281-0.166-0.274-0.348L595.89,165.145z"/>
<path fill="none" stroke="#323232" d="M616.938,171.313c-0.156-0.005-0.257-0.087-0.302-0.296c-0.134-0.63-0.384-0.95-0.747-0.963
	c-0.26-0.009-0.396,0.194-0.406,0.454c-0.028,0.832,1.16,1.81,2.683,2.929c1.649,1.202,2.858,3.117,2.792,5.04
	c-0.121,3.482-2.297,6.19-5.701,6.072c-3.949-0.137-5.67-3.058-5.525-7.216c0.005-0.13,0.113-0.256,0.32-0.249l3.593-0.058
	c0.183,0.007,0.282,0.114,0.3,0.349c0.068,1.043,0.472,2.176,1.096,2.197c0.363,0.013,0.605-0.213,0.626-0.811
	c0.021-0.624-1.394-1.817-3.087-3.281c-1.691-1.464-2.482-3.442-2.421-5.209c0.092-2.65,2.167-5.467,5.649-5.346
	c3.481,0.12,5.544,2.924,5.437,6.016c-0.006,0.183-0.115,0.334-0.323,0.327L616.938,171.313z"/>
<path fill="none" stroke="#323232" d="M634.175,165.063c0.183,0.007,0.307,0.167,0.326,0.35l2.917,18.703
	c0.042,0.288-0.098,0.569-0.384,0.56l-4.209-0.146c-0.156-0.005-0.309-0.114-0.329-0.271l-0.385-3.916
	c-0.021-0.13-0.123-0.212-0.253-0.217l-1.403-0.048c-0.104-0.004-0.212,0.097-0.243,0.251l-0.625,3.803
	c-0.033,0.182-0.219,0.279-0.348,0.274l-4.288-0.148c-0.233-0.008-0.358-0.194-0.297-0.452l4.132-18.615
	c0.029-0.129,0.166-0.307,0.322-0.301L634.175,165.063z M631.55,174.781c-0.04-0.365-0.084-0.602-0.162-0.604
	c-0.078-0.002-0.136,0.178-0.202,0.592l-0.423,2.457c-0.031,0.129,0.017,0.261,0.146,0.266c0.832,0.028,0.91,0.031,0.892-0.204
	L631.55,174.781z"/>
<path fill="none" stroke="#323232" d="M643.11,165.229c0.008-0.26,0.145-0.438,0.379-0.43l6.055,0.21
	c1.195,0.042,5.012,1.032,4.841,5.943c-0.083,2.417-2.323,4.732-4.817,4.646c-1.273-0.044-1.404-0.049-1.414,0.263l-0.285,8.238
	c-0.008,0.208-0.169,0.358-0.455,0.349l-4.547-0.158c-0.234-0.008-0.409-0.222-0.4-0.482L643.11,165.229z M648.28,172.199
	c-0.004,0.104,0.067,0.288,0.25,0.294c0.389,0.014,0.557-0.318,0.574-0.838l0.037-1.065c0.016-0.416-0.184-0.709-0.521-0.721
	c-0.077-0.003-0.129-0.005-0.182,0.02s-0.083,0.127-0.086,0.205L648.28,172.199z"/>
<path fill="none" stroke="#323232" d="M666.082,165.063c0.182,0.007,0.306,0.167,0.326,0.35l2.916,18.703
	c0.042,0.288-0.098,0.569-0.384,0.56l-4.21-0.146c-0.155-0.005-0.308-0.114-0.328-0.271l-0.385-3.916
	c-0.021-0.13-0.123-0.212-0.253-0.217l-1.403-0.048c-0.104-0.004-0.211,0.097-0.242,0.251l-0.627,3.803
	c-0.032,0.182-0.218,0.279-0.348,0.274l-4.287-0.148c-0.233-0.008-0.358-0.194-0.297-0.452l4.132-18.615
	c0.03-0.129,0.166-0.307,0.322-0.301L666.082,165.063z M663.456,174.781c-0.04-0.365-0.084-0.602-0.162-0.604
	c-0.077-0.002-0.136,0.178-0.202,0.592l-0.423,2.457c-0.031,0.129,0.017,0.261,0.146,0.266c0.831,0.028,0.909,0.031,0.892-0.204
	L663.456,174.781z"/>
<path fill="none" stroke="#323232" d="M680.112,164.979c2.287,0.079,4.954,1.94,4.845,5.111c-0.049,1.403-0.397,3.967-2.879,4.245
	l-0.002,0.052c3.139,1.02,3.08,2.708,2.988,5.359c-0.011,0.312,0.108,0.628,0.672,0.882c0.127,0.082,0.225,0.268,0.222,0.371
	c-0.123,3.534-2.729,3.652-3.586,3.623c-1.871-0.065-3.073-1.408-2.989-3.851l0.139-4.002c0.029-0.831-0.32-1.26-0.606-1.27
	c-0.155-0.006-0.186,0.124-0.192,0.306l-0.288,8.315c-0.005,0.156-0.141,0.308-0.322,0.301l-4.443-0.154
	c-0.183-0.006-0.308-0.141-0.301-0.348l0.653-18.84c0.006-0.183,0.141-0.308,0.296-0.302L680.112,164.979z M678.819,173.026
	c-0.007,0.182,0.044,0.235,0.174,0.24c0.623,0.021,0.648-0.706,0.69-1.901c0.021-0.598-0.332-0.948-0.565-0.956
	c-0.13-0.005-0.211,0.07-0.216,0.227L678.819,173.026z"/>
<path fill="none" stroke="#323232" d="M690.676,165.145c0.005-0.155,0.167-0.332,0.35-0.326l9.225,0.32
	c0.155,0.005,0.255,0.139,0.25,0.295l-0.162,4.677c-0.006,0.156-0.139,0.256-0.295,0.25l-4.34-0.15
	c-0.104-0.003-0.185,0.072-0.188,0.176l-0.05,1.455c-0.004,0.104,0.098,0.186,0.176,0.188l2.053,0.071
	c0.104,0.003,0.179,0.084,0.176,0.188l-0.164,4.729c-0.005,0.13-0.112,0.23-0.216,0.227l-2.105-0.072
	c-0.104-0.004-0.185,0.071-0.188,0.201l-0.054,1.533c-0.003,0.104,0.072,0.185,0.149,0.188l4.496,0.155
	c0.182,0.007,0.281,0.141,0.276,0.271l-0.167,4.833c-0.006,0.156-0.14,0.281-0.296,0.276l-9.303-0.322
	c-0.156-0.006-0.28-0.166-0.274-0.348L690.676,165.145z"/>
<path fill="none" stroke="#323232" d="M704.695,172.209c0.164-4.729,2.469-7.407,6.028-7.284c3.794,0.132,5.684,3.423,5.554,7.165
	c-0.024,0.702-0.027,0.779-0.261,0.771l-4.813,0.016c-0.234-0.008-0.461-0.225-0.45-0.536l0.057-1.637
	c0.013-0.364-0.19-0.501-0.398-0.509c-0.208-0.007-0.422,0.168-0.432,0.454l-0.28,8.081c-0.009,0.26,0.166,0.448,0.4,0.456
	c0.26,0.009,0.423-0.193,0.432-0.453l0.091-2.625c0.006-0.155,0.118-0.386,0.325-0.353l4.904,0.353
	c0.13,0.004,0.204,0.11,0.201,0.215c-0.217,6.263-2.864,8.33-6.139,8.217c-3.612-0.125-5.526-3.443-5.397-7.16L704.695,172.209z"/>
<path fill="none" stroke="#323232" d="M720.568,184.393c-0.182-0.006-0.331-0.193-0.324-0.401l0.652-18.839
	c0.005-0.131,0.113-0.257,0.243-0.252l4.443,0.153c0.183,0.007,0.309,0.115,0.303,0.271l-0.654,18.893
	c-0.005,0.155-0.142,0.333-0.323,0.326L720.568,184.393z"/>
<path fill="none" stroke="#323232" d="M730.079,184.282c-0.207-0.008-0.307-0.142-0.301-0.323l0.651-18.787
	c0.007-0.208,0.144-0.386,0.352-0.379l4.651,0.161c4.131,0.144,6.483,2.853,6.319,7.582l-0.168,4.833
	c-0.146,4.21-2.617,7.221-6.646,7.081L730.079,184.282z M736.581,170.847c0.009-0.26-0.062-0.47-0.213-0.605
	c-0.102-0.081-0.307-0.167-0.437-0.171c-0.104-0.004-0.159,0.072-0.164,0.229l-0.299,8.627c-0.006,0.156,0.045,0.21,0.148,0.213
	c0.156,0.006,0.676,0.023,0.702-0.729L736.581,170.847z"/>
<path fill="none" stroke="#323232" d="M746.035,170.716c0.14-4.028,2.728-5.89,5.612-5.79c2.884,0.101,5.337,2.137,5.197,6.164
	l-0.267,7.692c-0.139,4.002-2.752,5.862-5.61,5.763c-2.859-0.099-5.339-2.109-5.199-6.138L746.035,170.716z M750.761,178.502
	c-0.014,0.391,0.106,0.681,0.392,0.69c0.286,0.01,0.426-0.271,0.439-0.661l0.261-7.536c0.012-0.338-0.105-0.706-0.391-0.716
	c-0.286-0.01-0.428,0.323-0.44,0.688L750.761,178.502z"/>
<path fill="none" stroke="#323232" d="M768.058,171.313c-0.156-0.005-0.258-0.087-0.302-0.296c-0.135-0.63-0.384-0.95-0.747-0.963
	c-0.261-0.009-0.397,0.194-0.406,0.454c-0.029,0.832,1.16,1.81,2.682,2.929c1.65,1.202,2.858,3.117,2.792,5.04
	c-0.121,3.482-2.296,6.19-5.7,6.072c-3.95-0.137-5.67-3.058-5.525-7.216c0.004-0.13,0.112-0.256,0.32-0.249l3.593-0.058
	c0.182,0.007,0.282,0.114,0.3,0.349c0.068,1.043,0.471,2.176,1.095,2.197c0.364,0.013,0.605-0.213,0.626-0.811
	c0.022-0.624-1.394-1.817-3.086-3.281s-2.482-3.442-2.421-5.209c0.092-2.65,2.166-5.467,5.648-5.346
	c3.482,0.12,5.544,2.924,5.438,6.016c-0.007,0.183-0.116,0.334-0.324,0.327L768.058,171.313z"/>
<path fill="#F6EC38" stroke="#323232" stroke-width="6" d="M514.099,60.158c2.544-10.195-0.477-42.527-31.234-57.922
	c0,0,24.407,34.758,11.407,57.922"/>
</svg>
