<?xml version="1.0" encoding="utf-8"?>
<!-- Generator: Adobe Illustrator 16.0.3, SVG Export Plug-In . SVG Version: 6.00 Build 0)  -->
<!DOCTYPE svg PUBLIC "-//W3C//DTD SVG 1.1//EN" "http://www.w3.org/Graphics/SVG/1.1/DTD/svg11.dtd">
<svg version="1.1" id="Layer_1" xmlns="http://www.w3.org/2000/svg" xmlns:xlink="http://www.w3.org/1999/xlink" x="0px" y="0px"
	 width="260px" height="260px" viewBox="0 0 260 260" enable-background="new 0 0 260 260" xml:space="preserve">
<g>
	<g>
		<g>
			<path fill="none" stroke="#333333" stroke-width="10" d="M143.681,70.836c23.375,1.977,43.052,11.483,59.032,28.516
				c10.658,11.597,18.031,27.628,22.125,48.087c1.023,5.035,1.535,9.936,1.535,14.71v4.094c0,28.82-8.145,56.275-24.43,82.368
				c-2.387,3.412-3.752,5.161-4.094,5.243h-44.766v-32.998c0-8.013-4.473-14.408-13.43-19.184c-2.813-1.364-5.967-2.048-9.464-2.048
				c-9.378,0-16.288,4.777-20.718,14.326c-1.109,2.218-1.663,4.521-1.663,6.905v32.998h-45.66
				c-11.257-13.557-19.525-32.315-24.812-56.274c-2.476-9.893-3.71-19.652-3.71-29.291v-4.858c0-16.029,5.838-34.104,17.522-54.232
				c3.153-5.114,8.567-11.254,16.242-18.417c15.85-12.792,33.942-19.549,54.269-20.271"/>
		</g>
	</g>
	<line fill="none" stroke="#2E2E2F" stroke-width="2" x1="132.764" y1="124.895" x2="123.165" y2="132.158"/>
	<line fill="none" stroke="#2E2E2F" stroke-width="2" x1="130.178" y1="132.158" x2="123.165" y2="122.334"/>
	<g>
		<g>
			<path fill="none" stroke="#323232" stroke-width="6" d="M145.592,97.215c4-16.031-0.75-66.866-49.11-91.07
				c0,0,38.375,54.649,17.937,91.07"/>
		</g>
	</g>
</g>
</svg>
