<?xml version="1.0" encoding="utf-8"?>
<!-- Generator: Adobe Illustrator 16.0.3, SVG Export Plug-In . SVG Version: 6.00 Build 0)  -->
<!DOCTYPE svg PUBLIC "-//W3C//DTD SVG 1.1//EN" "http://www.w3.org/Graphics/SVG/1.1/DTD/svg11.dtd">
<svg version="1.1" id="Layer_1" xmlns="http://www.w3.org/2000/svg" xmlns:xlink="http://www.w3.org/1999/xlink" x="0px" y="0px"
	 width="696.884px" height="610.777px" viewBox="-127.026 -25.861 696.884 610.777"
	 enable-background="new -127.026 -25.861 696.884 610.777" xml:space="preserve">
<g>
	<g>
		<path fill="#F7ED38" stroke="#F7ED38" stroke-width="2" stroke-miterlimit="10" d="M349.207,549.174
			c4.066,4.521,2.846,11.932,8.52,15.561c5.23,1.555,10.431,1.395,15.123,6.41c5.15,5.492,16.529-2.072,17.396-10.072
			c0.414-3.842,0.709-7.621,0.645-11.461c-4.967-8.457-8.651-18.119-15.237-25.02c-7.314-7.676-12.027-17.174-19.701-24.604
			c-3.134-3.039-6.8-5.303-10.013-7.967c-7.635-6.314-14.108-13.945-21.69-19.969c-14.625-11.629-9.166-25.543-1.156-35.521
			c9.296-11.582,19.787-22.211,28.564-34.26c-0.701-6.801,7.096-11.9,3.495-19.646c-1.049-2.26,2.644-2.586,5.025-1.84
			c5.313,1.664,9.906,1.039,12.334-4.736c1.82-4.334,5.631-1.766,8.429-2.648c10.057,3.65,12.465-4.566,15.774-10.617
			c2.752-5.027-4.162-5.654-5.141-9.17c-0.019-1.795-0.961-2.557-2.695-2.461c-8.391-10.021-14.99-21.643-26.938-28.426
			c-6.771-3.842-5.976-13.271-11.966-17.943c-0.896-6.313,0.678-12.282,3.438-17.756c4.221-8.377-2.261-3.98-4.813-4.318
			c-2.367,2.167-3.641,5.477-6.934,6.686c-0.104,1.66-1.264,2.36-2.619,2.883c0.154,1.641-1.729,2.695-1.293,4.399
			c1.098,4.25-1.662,7.155-4.559,8.593c-3.867,1.924-2.828-4.191-5.699-4.771c-0.938-0.192-1.846-0.5-2.762-0.791
			c-1.104,2.23-2.726,3.975-4.875,5.229c0.402,0.938,0.541,1.922,0.412,2.939c-2.037,10.191-11.521,12.564-18.674,16.807
			c-8.845,5.244-10.097,7.736-3.313,15.484c2.549,2.916,5.352,5.469,2.275,9.246c-11.187,13.754-3.631,28.416-1.752,42.564
			c0.635,4.779,1.625,9.188-1.063,13.053c-4.941,7.088-7.119,15.896-13.827,21.873c-1.725,1.521-2.342,3.092-1.686,5.949
			c2.127,9.211-4.4,15.574-13.803,13.303c-5.65-1.363-11.09-0.828-16.517-0.16c-6.896,0.857-14.431-5.521-13.925-12.605
			c0.037-0.518,0.789-0.813,1.512-0.949c2.697-3.6,1.869-7.713,1.736-11.732c0.594-4.977-3.998-6.367-6.481-9.176
			c-0.835-0.938-2.94-1.313-3.198,0.242c-1.219,7.229-8.42,8.369-12.463,12.67c-3.313,3.529-3.882,6.516-1.965,11.373
			c1.749,4.434,5.23,8.25,5.41,13.309c10.529,8.947,12.672,20.197,9.091,33.029c4.265,2.75,2.388,7.211,2.19,10.586
			c-1.115,19.027-2.5,38.043-1.644,57.121c0.204,4.494-0.348,8.965,4.132,12.389c4.104,3.146-0.988,5.982-1.35,9.064
			c0.119,5.545,4.611,8.455,8.438,9.621c10.51,3.197,21.371,2.213,31.9-0.746c4.574-1.287,6.055-5.5,5.129-9.514
			c-1.199-5.193-3.486-10.26-10.177-10.605c-9.051,0.715-15.397-4.379-20.526-10.688c-4.246-5.227-0.841-11.771,1.233-16.277
			c4.685-10.178,6.844-21.287,12.351-31.141c1.907-3.404,3.241-8.012-1.812-11.219c-2.78-1.771-3.021-5.229,0.581-5.514
			c4.874-0.385,8.585-2.918,12.859-4.281c3.508-1.127,7.426-1.398,11.291,1.047c16.597,10.486,31.46,23.902,50.487,30.35
			c1.97,0.668,3.063,2.412,4.313,3.934c3.752-0.922,6.552,2.604,6.435,4.271C346.787,530.215,354.24,539.36,349.207,549.174z"/>
		<path fill="#F7ED38" stroke="#F7ED38" stroke-width="2" stroke-miterlimit="10" d="M320.214,304.245
			c2.117-0.586,3.386-1.959,3.813-4.109c3.699-5.551,9.129-7.941,15.553-8.521c1.355-0.018,1.986-0.704,1.908-2.053
			c-2.396-4.669-5.426-5.323-9.168-1.451c-0.688,0.714-1.228,1.649-2.039,2.14c-7.178,4.33-12.791,14.775-23.459,5.201
			c-2.4-2.16-7.021-0.009-10.613-0.247c-15.747-1.036-27.334-11.35-40.469-18.229c-1.576-0.089-3.131-0.045-4.598,0.649
			c-10.007,1.09-19.447,5.256-30.229,1.341c-8.606-3.127-17.866,1.549-26.589,3.596c-6.654,1.563-11.956,0.563-18.304-1.666
			c-7.803-2.737-15.852-8.111-25.006-3.583c-3.037,1.496-4.3-0.155-3.101-3.009c1.434-3.384,2.846-6.653,2.153-10.433
			c-0.929-5.027,2.559-6.333,5.75-4.752c7.022,3.482,8.48-2.65,11.349-5.886c2.09-2.359,1.257-7.134,6.303-7.191
			c1.573-0.018,1.987-1.676,1.213-2.923c-0.858-1.38-2.142-2.441-3.877-2.813c-3.228-0.686-7.066,2.445-9.775-1.536
			c-1.983,0.074-3.966,0.148-5.94,0.222c-4.762-0.166-9.541,1.116-14.28-0.176c-1.958,3.099,0.228,3.911,2.563,4.166
			c1.613,0.178,2.817-1.496,4.529-1.69c6.022-0.688,9.813,3.105,11.082,7.741c1.235,4.489-3.729,5.184-7.175,5.87
			c-1.643,0.328-3.871,0.334-4.338,1.846c-4.674,14.907-17.336,9.257-26.979,9.984c-4.83,0.366-5.986,2.905-7.849,5.792
			c-2.265,3.514-2.473,7.025,1.315,9.497c8.405,5.481,4.973,7.349-2.329,8.31c-10.129,1.334-17.969,5.475-23.309,15.058
			c-3.926,7.051-11.08,9.635-19.638,7.463c-4.141-1.058-11.077-4.834-8.31,5.941c0.878,3.434-4.385,7.131-8.028,6.42
			c-4.912-0.971-1.176-4.701-0.357-7.031c1.26-3.623,0.901-7.139-0.013-10.63c-0.413-1.586-3.065-3.391-3.507-2.504
			c-2.636,5.312-7.531,4.091-11.805,5.353c-3.074,0.904-4.455,4.355-1.877,8.123c2.409,3.498,4.529,7.322,5.359,11.588
			c1.169,6.002,5.665,12.682-3.485,16.711c-2.916,1.291-0.604,3.486,0.223,4.854c13.249,21.9,11.289,47.613,17.78,71.209
			c1.086,3.949,3.3,7.098,4.791,10.701c0.489,1.195,1.484,2.299,0.376,3.533c-1.581,1.779-2.943,0.537-4.14-0.574
			c-1.388-1.285-3.491-1.396-4.428-3.584c-7.049-16.473-19.366-29.553-28.923-44.416c-0.284,8.779,5.431,15.088,9.687,21.736
			c1.971,3.082,2.646,6.514,4.52,9.527c1.055,1.701,0.459,4.262-2.291,4.17c-6.386-0.217-7.107,5.547-10.4,8.773
			c-6.026,5.928-7.621,16.797-18.934,17.17c-2.895,0.104-4.2,5.363-3.778,6.084c3.735,6.414-1.198,12.662,0.196,18.865
			c5.146-2.492,7.446-11.813,15.877-6.594c0.694,0.438,2.169,0.156,2.769-0.594c7.177-8.867,19.379-14.639,17.767-29.008
			c12.473,8.166,7.793,20.949,8.72,31.945c0.486,5.664-7.285,5.566-9.754,9.945c-1.066,1.889-4.835,1.939-5.34,5.094
			c7.373-0.373,10.52-7.426,16.333-10.363c6.648-3.359,10.139-2.604,13.504,4.918c4.087,9.125,3.703,19.355,8.53,28.197
			c1.377,2.541,1.608,5.689,4.426,7.395c0.12-7.563,1.067-14.023,5.925-21.164c3.589-5.283,7.497-12.805,8.263-20.234
			c0.483-4.729-0.854-8.979-3.522-13.645c-5.027-8.803-12.255-16.816-13.399-27.586c-2.692-0.564-2.415-2.879-2.82-4.803
			c-2.484-8.455-5.345-17.133-4.307-25.838c0.688-5.785,1.582-13.629,10.784-13.863c1.685-0.049,3.862-1.213,4.254-2.16
			c4.282-10.479,15.132-8.615,22.899-12.416c1.855-0.908,5.358-0.096,3.377-3.836c-3.605-6.811,1.782-12.771,4.313-16.529
			c4.377-6.479,2.518-9.146-3.129-12.693c5.498-3.451,10.372-6.09,15.605-7.551c9.706-2.729,16.465-8.996,21.756-17.051
			c2.554-3.873,4.713-4.172,8.906-2.145c6.231,3.012,10.004,0.273,11.045-6.869c0.791-5.387,8.245-10.8,15.161-9.275
			c4.479,0.984,7.114,0.225,10.679-2.108c3.25-2.129,7.9-1.983,11.529-0.652c12.978,4.766,24.242,2.733,34.674-6.449
			c11.219-9.872,22.787-7.875,33.089,2.969c9.5,9.995,22.222,14.552,36.086,12.623C310.438,303.819,315.311,305.557,320.214,304.245
			z"/>
		<path fill="#F7ED38" stroke="#F7ED38" stroke-width="2" stroke-miterlimit="10" d="M71.06,432.592
			c1.827,11.283,9.244,19.881,14.438,29.506c4.009,7.438,3.041,13.154-0.348,21.16c-4.392,10.369-13.643,19.686-10.98,32.553
			c1.123,13.834,9.878,24.09,16.561,35.316c0.311,0.529,0.463,1.154,0.694,1.734c4.753,2.979,9.114,5.586,10.889,12.059
			c1.724,6.307,9.631,7.525,14.812,9.869c4.501,2.035,12.55,3.752,15.266-5.033c0.249-0.836,0.98-1.629,2.019-1.895
			c7.471-1.885,7.462-1.896,4.659-9.457c-0.447-1.201-1.829-1.871-1.93-3.287c-6.783-2.822-9.129-9.479-13.084-14.822
			c-6.649-8.996-12.839-17.977-15.206-29.334c-1.49-7.188-0.715-14.57-0.91-21.5c-0.411-15.121-0.157-30.801,5.192-45.549
			c0.102-0.283-0.01-0.654-0.022-0.98c-0.046-1.063-0.079-2.117-0.093-3.188c3.46-5.902,6.271-13.65,14.772-5.193
			c2.147,2.133,3.706,0.693,4.567-1.123c4.635-9.75,13.918-9.127,22.312-9.805c11.519-0.922,11.747-0.643,10.046-11.82
			c-0.334-2.176,0.374-3.775,0.696-5.559c1.51-8.371-4.876-16.396-13.271-16.354c-4.334,0.025-9.033,1.77-10.551-5.164
			c-0.622-2.855-4.266-5.094-8.093-3.99c-3.866,1.107-4.238,4.529-4.513,7.762c-0.169,1.943,0.525,3.896,0.731,5.814
			c0.847,7.486-3.238,10.938-10.651,9.402c-4.352-0.896-11.566-3.646-12.379-3.17c-9.806,5.723-18.184,2.303-27.112-1.787
			c-2.955-1.357-4.983,1.635-5.722,5.07C71.81,413.327,69.432,422.756,71.06,432.592z"/>
		<path fill="#F7ED38" stroke="#F7ED38" stroke-width="2" stroke-miterlimit="10" d="M139.24,239.583
			c5.279-0.198,10.561-0.395,15.849-0.592c-0.384-2.242-1.888-2.108-3.648-1.887c-28.749,3.623-57.146-4.249-85.814-2.624
			c-4.205,0.241-5.77-2.708-8.019-4.763c-21.539-19.699-39.645-42.333-56.131-66.328c-1.073,0.879-5.04-3.061-3.298,0.744
			c2.532,5.549,1.654,12.711,7.703,16.877c1.508,1.037,3.796,3.95,1.802,6.752c-13.594-7.335-16.523-22.611-25.286-33.53
			c-1.228-1.529-1.249-2.919,0.08-4.338c4.252-4.554-1.059-6.753-2.445-9.923c-1.862,0.962-6.918-2.341-5.015,3.627
			c1.69,5.281-2.174,10.599,1.525,16.442c2.137,3.359-4.388,8.96-1.471,14.833c0.462,0.927-6.089,2.792-8.8-0.418
			c-2.087-2.476-4.799-5.753-4.576-8.595c0.885-11.138-6.97-17.994-11.737-26.356c-0.88-1.545-1.803-3.348-0.767-4.537
			c8.702-9.958-1.214-12.325-7.182-16.795c5.069-5.371,4.438-11.656,3.61-18.246c-1.18-9.353,0.256-18.257,6.037-26.224
			c3.553-4.9,5.26-10.825,9.442-15.635c2.344-2.708,2.263-6.772,7.354-4.279c1.915,0.941,3.381-0.268,2.991-2.303
			c-1.372-7.115,4.722-7.104,8.475-9.9c10.926-8.151,23.767-7.181,35.791-7.054c8.765,0.097,17.28,5.268,24.916,10.421
			c3.876,2.619,0.669,4.502-0.984,6.054c-8.082,7.576-17.22,7.708-28.61,4.694c-0.492,0.019-1.023-0.018-1.515,0
			c15.172,5.948,29.851,8.091,38.197-0.778c4.178-4.437,4.628-8.222-0.179-12.36c-4.102-3.528-8.035-6.352-13.842-7.705
			c-12.294-2.873-24.504-8.979-36.931-7.559c-10.49,1.2-22.706,2.686-30.205,12.185c-9.872,12.514-18.811,26.161-23.402,41.28
			c-5.256,17.299-5.5,34.975-0.878,53.489c5.82,23.29,18.059,42.498,30.668,61.947c4.421,2.68,8.995,5.258,8.369,11.591
			c8.321,11.803,14.2,24.839,19.138,38.318c0.853,2.337,1.871,3.908,4.282,4.453c5.129,0.706-2.641,7.965,4.024,7.886
			c2.865-3.684,4.991-6.896,0.405-11.407c-2.155-2.124-1.367-6.608,2.313-8.133c2.846-1.186,5.71-1.841,7.212,3.121
			c2.145,7.067,6.952-0.191,10.434,0.958c7.87-6.305,16.075-7.091,24.662-1.531c1.125,0.723,2.333,1.486,3.666,1.052
			c13.558-4.409,27.012-3.2,40.463,0.564c1.209,0.336,2.625-0.042,3.94-0.23c1.724-3.831,5.582-2.487,7.688-1.925
			C119.685,243.625,129.428,241.875,139.24,239.583z"/>
		<path fill="#F7ED38" stroke="#F7ED38" stroke-width="2" stroke-miterlimit="10" d="M350.007,305.12
			c9.728,18.291,28.285,29.045,39.42,46.141c1.277-3.457-4.104-10.154,4.408-9.918c2.744,0.074,4.139,6.625,9.24-0.277
			c-1.002,9.676-4.5,12.971-11.597,12.105c9.617,6.541,3.093,13.229-0.153,19.512c-2.168,4.197-6.07-1.102-9.006,0.666
			c2.006,7.52,8.67,8.561,14.633,10.766c2.029,0.756,2.998,0.074,4.158-1.15c1.229-1.289,2.135-2.809,0.387-4.129
			c-6.504-4.932-2.531-9.496,0.326-14.139c-5.465-7.379,0.594-11.98,4.307-16.965c0.955-1.277,1.73,1.188,2.834,1.479
			c6.563-1.104,12.787-4.223,19.689-3.205c6.149-10.189,5.621-21.016,3.022-32.033c2.496-5.81-2.682-10.363-2.567-15.774
			c-3.679-6.764-4.039-13.222,0.991-19.703c1.05-1.352-4.739,2.25-6.922-0.398c-4.035,2.846,2.875,1.293,0.574,1.472
			c-7.438,0.572-13.762-6.225-19.17-0.233c0.602,5.191,7.096,8.83,3.484,15.62c-6.931-3.357-19.804,2.661-19.246-12.894
			c-0.078-2.05,0.075,2.053,0,0c-0.584-2.118-2.187-4.734-4.341-5.161c-3.428,3.973-5.809,3.556-5.434,9.024
			c0.396,2.945,0.064,5.742-1.695,8.24c0.984,5.494,2.435,10.535,8.521,12.794c2.813,1.049,0.391,2.892,0.094,4.491
			c-0.565,3.09-2.146,2.783-3.889,1.363c-1.398-1.143-4.107-0.291-4.422-2.965c-10.422,3.729-12.877-5.101-17.224-10.939
			C355.736,298.917,355.277,306.053,350.007,305.12z"/>
		<path fill="#F7ED38" stroke="#F7ED38" stroke-width="2" stroke-miterlimit="10" d="M31.377,485.663
			c0.19-0.586,0.218-1.541,0.6-1.717c14.414-6.578,15.695-18.27,14.452-32.371c-0.6-6.762-6.884-8.117-8.158-13.711
			c1.718,14.377-10.345,20.197-17.369,29.051c-0.654,0.83-2.649,1.68-3.255,1.303c-8.678-5.441-11.104,4.176-16.434,6.678
			c-4.078,2.877-3.765,7.131-3.542,11.357c1.182,9.158-0.536,18.217-0.882,27.313c-0.091,2.158-1.066,5.416,1.134,6.414
			c8.754,3.953,6.653,10.141,4.451,16.908c-2.368,7.289,1.401,13.742,3.619,20.387c1.398,4.182,4.916,2.115,7.459,2.807
			c8.32,2.264,16.581,2.314,24.626-1.262c5.249-9.438-1.845-15.17-7.224-20.418c-2.557-2.488-3.683-4.215-3.798-7.506
			C26.531,515.62,26.261,500.395,31.377,485.663z"/>
		<path fill="#F7ED38" stroke="#F7ED38" stroke-width="2" stroke-miterlimit="10" d="M114.116,433.94
			c0.024,0.664-1.105,1.459-1.081,2.119c11.001,1.836,21.081,0.602,32.115-1.869c19.957-4.459,40.89,2.428,60.644,9.213
			c3.765,1.291,7.147,3.689,10.709,5.584c1.208,0.02,1.863-0.578,1.966-1.775c-8.113-2.541-12.376-10.16-17.617-15.615
			c-3.746-3.895-6.269-9.986-10.576-14.48c-2.057-2.152-1.269-6.121,0.141-9.402c3.894-9.025,7.503-18.18,5.632-28.348
			c-7.691,0.426-13.638-6.182-12.79-14.16c0.536-5.068,0.545-10.285-1.475-17.221c-4.364,7.842-9.26,10.793-16.176,6.08
			c-1.06-0.723-2.597-0.34-3.901-0.236c-2.591,0.215-20.31,16.906-20.729,19.469c-0.882,5.375,4.405,10.127,10.102,8.104
			c4.844-1.732,7.469-2.123,7.721,3.996c0.093,2.191,2.682,2.793,3.712,4.254c3.428,4.852,10.482,7.842,7.092,16.309
			c-1.859,4.654,3.147,7.496,6.59,9.947c2.803,2.006,5.842,4.08,4.689,7.771c-1.176,3.787-4.582,5.281-8.654,5.186
			c-3.298-0.072-6.631,0.568-9.889,0.264c-10.709-0.992-21.899-1.264-30.335,4.6C125.362,438.329,121.057,432.586,114.116,433.94z"
			/>
		<path fill="#F7ED38" stroke="#F7ED38" stroke-width="2" stroke-miterlimit="10" d="M161.029,238.77
			c0.095,0.316,0.087,0.772,0.295,0.93c4.091,3.022,14.783,0.238,12.845,3.339c-3.485,5.59-7.069,12.292-12.675,16.804
			c-0.258,0.208-0.63,0.604-0.794,0.539c-17.239-6.974-7.337,10.636-12.852,14.477c-1.464,1.016,1.156,4.413,2.395,3.201
			c8.155-7.986,15.73,4.016,23.641,0.46c11.219,11.408,23.029,1.477,34.548,0.825c4.986-0.284,9.498-1.127,14.836,0.346
			c9.396,2.591,19.178,0.545,28.474-2.646c-7.442-1.297-13.964-6.16-22.058-5.323c-2.557,0.264-4.676-2.571-5.817-4.793
			c-1.105-2.143-2.011-4.526-4.482-4.491c-11.864,0.167-13.847-11.179-20.411-17.15C187.042,238.923,174.172,238.056,161.029,238.77
			z"/>
		<path fill="#F7ED38" stroke="#F7ED38" stroke-width="2" stroke-miterlimit="10" d="M198.969,245.288
			c2.176,5.093,10.068,6.69,8.586,14.037c-0.047,0.244,0.289,0.805,0.307,0.796c12.342-4.086,15.328,12.288,26.535,11.96
			c5.728-0.165,11.558,3.199,17.345,4.964c1.321-0.049,2.646-0.099,3.962-0.148c7.042,0.257,13.411,1.352,19.85,5.469
			c7.715,4.94,16.58,10.256,26.445,3.513c3.312-2.267,4.666,1.209,6.424,2.729c5.099,4.413,10.505,5.212,15.277,0.348
			c6.854-6.979,14.842-7.268,23.512-5.562c2.966,2.003,4.808-4.649,7.451-1.243c1.739,2.242-1.203,4.495-2.067,6.58
			c-2.22,5.338-3.291,10.675-2.587,16.389c5.144,0.832,5.683-5.4,9.687-6.316c-0.029-5.917-4.541-11.497-1.34-17.654
			c4.051-0.522,4.692-5.479,8.397-6.454c5.695-2.323,9.83-0.23,9.875,5.423c0.014,1.777-1.008,3.605-0.133,5.482
			c0.797,0.448,1.652,0.642,2.563,0.57c-0.528-5.595,2.027-5.193,5.425-9.274c-2.746,3.755-5.332-1.657-10.961,0
			c-15.109,4.452-31.398,6.306-46.81,9.412c-8.262,1.664-16.975-8.488-24-12.981c-5.002-3.196-9.799-3.615-15.313-3.67
			c-14.604-0.149-30.026,5.049-43.53-3.2c-11.382-6.956-22.956-13.291-35.082-18.73
			C205.661,246.322,202.659,244.423,198.969,245.288z"/>
		<path fill="#F7ED38" stroke="#F7ED38" stroke-width="2" stroke-miterlimit="10" d="M340.023,515.793
			c-2.381-5.586-8.5-4.383-12.533-6.91c-13.248-8.32-26.68-16.383-39.457-25.385c-5.649-3.98-10.395-4.736-15.729-0.879
			c-4.244,3.063-20.377-0.438-7.313,13.234c1.61,1.689-3.558,9.615-5.255,14.77c-3.25,9.875-7.297,19.447-10.452,29.396
			c-3.761,11.846,5.809,13.645,11.153,18.27c1.496,1.301,6.166,3.287,9.816,1.771c-16.037-7.898-14.313-22.93-8.895-38.184
			c2.813-7.93,5.158-15.781,6.494-23.996c0.782-4.813,1.584-5.678,6.299-2.4c12.729,8.814,25.848,17.141,40.188,23.254
			C322.636,515.432,331.634,518.28,340.023,515.793z"/>
		<path fill="#F7ED38" stroke="#F7ED38" stroke-width="2" stroke-miterlimit="10" d="M-2.378,484.94
			c-0.421-3.93,0.164-7.5,3.591-10.047C-0.505,468.94,6.08,462.62,0.4,456.842c3.384-0.855-0.214-9.609,7.388-6.229
			c2.497,1.111,4.642-2.578,5.625-4.594c3.256-6.637,11.338-9.607,12.843-17.523c0.257-1.354,1.971-3.209,3.278-3.461
			c14.36-2.768,4.505-9.471,2.221-14.438c-3.347-7.252-8.964-13.455-9.943-21.799c-5.246-10.721-10.635-21.393-13.063-33.221
			c-0.384-1.912-0.278-4.041-3.013-4.229c-1.592-8.197-4.056-16.252-4.106-24.703c-0.539-5.822,0.239-11.748-1.188-17.508
			c-0.228-0.886-1.104-1.671-0.421-2.646c10.376-14.861,6.886-31.738,6.994-48.09c-4.641-1.493,3.112-6.577-2.279-7.854
			c-5.798,5.56-1.693,12.987-0.559,17.681c2.231,9.127-1.192,16.695-3.305,24.063c-6.744,23.53-3.402,45.731,5.33,67.714
			c5.76,14.5,11.778,28.904,17.709,43.338c2.478,6.037-0.461,10.996-2.933,16.129c-3.394,7.061-5.097,14.795-12.351,19.855
			c-11.676,8.162-13.188,21.299-13.002,34.006c0.061,4.494-5.532,9.307,0.088,13.645C-4.353,485.661-3.715,484.971-2.378,484.94z"/>
		<path fill="#F7ED38" stroke="#F7ED38" stroke-width="2" stroke-miterlimit="10" d="M401.832,364.682
			c-2.781,4.592-6.996,9.105-0.41,14.025c1.721,1.283,1.219,2.779-0.182,4.104c-1.146,1.084-1.984,2.443-4.084,1.48
			c-5.729-2.627-13.213-2.771-14.836-10.945c-4.064,0.738-10-2.139-10.726,5.682c-0.035,0.363-6.403,5.035-10.838,2.061
			c-2.094-1.416-6.104-0.719-5.575,0.348c4.016,8.061-3.914,13.717-3.531,20.842c3.197-4.465,5.756-9.621,9.717-13.242
			c9.145-8.357,16.994-7.678,31.815,1.049c7.763,4.566,15.707,7.566,23.48-0.16c5.098-7.795,2.156-22.539-5.502-27.395
			c-3.24,1.707,0.367,5.688-2.545,7.77C404.931,370.145,405.58,364.6,401.832,364.682z"/>
		<path fill="#F7ED38" stroke="#F7ED38" stroke-width="2" stroke-miterlimit="10" d="M-15.559,132.28
			c-2.524-12.092-3.025-24.368-3.397-36.666c-0.213-7.004,1.37-13.965,3.986-19.957c4.383-10.021,12.903-22.438,26.003-19.955
			c-3.449-7.378-8.348-3.834-15.245-1.541C-15.606,57.946-19.754,68.175-26.2,76.454c-1.143,8.536-2.31,17.087,1.143,25.387
			c2.231,5.35-2.3,9.116-2.981,13.763c-1.344,8.153,7.689,12.035,8.05,19.489C-16.68,137.051-16.439,134.153-15.559,132.28z"/>
		<path fill="#F7ED38" stroke="#F7ED38" stroke-width="2" stroke-miterlimit="10" d="M340.023,515.793
			c-8.392,2.461-17.394-0.383-25.687,2.943c13.197,8.35,24.156,19.258,34.865,30.438c4.799-10.174-1.813-19.568-2.24-29.414
			C346.882,517.821,343.646,514.897,340.023,515.793z"/>
		<path fill="#F7ED38" stroke="#F7ED38" stroke-width="2" stroke-miterlimit="10" d="M401.832,364.682
			c3.203,0.563,4.15,3.463,5.162,5.898c1.24-0.516,1.959-0.617,2.377-1.02c2-1.961-1.938-7.145,2.658-6.855
			c2.924,0.189,7.237,3.463,5.692,7.578c-2.475,6.607,6.754,13.582-1.061,19.633c9.992-1.73,14.477-7.77,15.067-20.5
			c0.117-2.605-0.161-5.223-0.258-7.832c-1.895,0.104-3.604,3.572-4.928,1.814c-5.133-6.813-16.148-5.711-19.367-14.797
			C401.363,350.846,399.285,357.098,401.832,364.682z"/>
		<path fill="#F7ED38" stroke="#F7ED38" stroke-width="2" stroke-miterlimit="10" d="M-15.559,132.28
			c-0.428,2.153-1.699,3.526-3.818,4.11c0.049,1.322,0.101,2.645,0.148,3.962c0.861,3.553,5.848,6.095,1.012,11.07
			c-2.337,2.413,2.761,7.111,4.403,9.17c4.085,5.106,5.793,10.915,8.723,16.319c2.751,5.071,10.138,6.196,12.515,12.529
			c2.543-4.136-0.007-8.148-1.711-9.018c-6.993-3.569-3.285-11.894-8.057-16.167c-0.44-0.396-1.107-2.705,1.319-2.088
			c0.882,0.227,1.671,0.805,2.501,1.222C-4.199,153.019-9.882,142.65-15.559,132.28z"/>
		<path fill="#F7ED38" stroke="#F7ED38" stroke-width="2" stroke-miterlimit="10" d="M388.591,283.611
			c0.076,1.98,0.148,3.965,0.228,5.943c0.983-0.042,2.479-0.473,2.879,0.013c6.014,7.335,9.399,2.207,12.896-2.584
			c5.771-8.491,18.137,1.764,25.865-1.703c2.01-0.901,3.055-4.371,0,0c-4.367,6.26-6.299,13.408-1.348,20.625
			c5.627-4.427-2.457-10.659,2.881-16.648c3.746-4.206-6.754-0.319-0.322-6.813C411.439,285.049,406.689,282.577,388.591,283.611z"
			/>
		<path fill="#F7ED38" stroke="#F7ED38" stroke-width="2" stroke-miterlimit="10" d="M-2.378,484.94
			c-1.355,0.021-1.991,0.713-1.909,2.055c-2.296,13.74-2.2,27.307,1.4,40.926c1.77,6.707,1.295,13.877,2.298,20.824
			c1.359,9.395,5.211,13.746,13.719,14.334c7.754,0.525,14.449-2.742,22.234-3.1c2.162-0.1,2.574,0.354,2.714-1.16
			c-10.122,4.844-21.511,4.301-30.378,0.08c-5.794-2.766-7.387-13.617-5.659-21.402c1.554-6.998,5.523-13.09-4.173-17.715
			c-1.925-0.914-2.238-8.191-1.122-11.875C-0.92,500.155-2.603,492.575-2.378,484.94z"/>
		<path fill="#F7ED38" stroke="#F7ED38" stroke-width="2" stroke-miterlimit="10" d="M137.139,555.118
			c1.241,2.771,2.372,5.596,3.764,8.279c1.185,2.299,0.143,6.145-0.664,5.73c-7.497-3.789-8.393,5.023-12.963,6.299
			c-8.114,2.244-22.411-4.922-25.452-12.881c-1.942-5.064-6.213-7.232-10.398-9.689c8.592,20.551,15.187,26.785,34.542,24.549
			c4.245-0.484,8.505-3.645,12.76-3.383c4.426,0.271,6.033,0.957,7.591-2.701c1.559-3.662,2.663-7.184-1.052-9.367
			C142.062,560.084,142.416,554.225,137.139,555.118z"/>
		<path fill="#F7ED38" stroke="#F7ED38" stroke-width="2" stroke-miterlimit="10" d="M407.183,348.608
			c3.148,9.209,14.287,7.994,19.414,14.854c1.402,1.891,2.896-1.996,4.886-1.877c0.299-3.104,5.073-4.186,3.664-8.074
			c1.276-5.283-4.933-4.506-6.24-7.699C421.386,344.573,414.64,349.395,407.183,348.608z"/>
		<path fill="#F7ED38" stroke="#F7ED38" stroke-width="2" stroke-miterlimit="10" d="M390.888,549.608
			c-0.094,8.688,2.813,18.109-9.594,22.307c-3.412,1.146-5.654-1.57-8.229,0.146c-2.877-7.115-9.693-5.998-15.343-7.33
			c4.291,9.721,19.769,15.77,28.688,11.217C395.964,571.067,397.568,561.62,390.888,549.608z"/>
		<path fill="#F7ED38" stroke="#F7ED38" stroke-width="2" stroke-miterlimit="10" d="M234.961,571.305
			c1.941-3.979,5.268-8.014-0.898-11.432c-2-1.111-1.502-3.27-1.739-5.225c-1.935-15.871,1.616-31.738,0.194-47.506
			c-0.763-8.371,4.979-16.916-0.888-24.998c-0.668,2.354-1.976,4.279-1.845,7.135c0.771,16.676-1.411,33.502-0.889,49.885
			C229.218,549.172,225.525,562.18,234.961,571.305z"/>
		<path fill="#F7ED38" stroke="#F7ED38" stroke-width="2" stroke-miterlimit="10" d="M428.904,345.811
			c1.233,3.258,7.563,2.381,6.237,7.699c6.673-6.277,3.218-14.215,2.914-21.32c-0.271-6.4-3.289-12.473-6.379-18.227
			C433.99,324.866,434.964,335.649,428.904,345.811z"/>
		<path fill="#F7ED38" stroke="#F7ED38" stroke-width="2" stroke-miterlimit="10" d="M218.482,448.913
			c-0.659,0.025-1.322,0.051-1.98,0.074c9.156,8.07,16.521,16.771,11.705,30.338c-0.311,0.875,1.486,2.785,3.423,2.824
			c3.769-13.006,1.171-24.262-9.183-33.383C221.122,448.815,219.807,448.864,218.482,448.913z"/>
		<path fill="#F7ED38" stroke="#F7ED38" stroke-width="2" stroke-miterlimit="10" d="M-18.686,207.79
			c0.604-6.32-3.933-8.915-8.369-11.591C-25.912,201.25-22.987,205.017-18.686,207.79z"/>
		<path fill="#F7ED38" stroke="#F7ED38" stroke-width="2" stroke-miterlimit="10" d="M218.482,448.913
			c1.324-0.049,2.64-0.098,3.965-0.145c0.498-4.711-2.914-8.439-4.809-11.73c-4.408-7.688-0.367-11.803,4.521-15.318
			c3.648-2.633,6.193-6.615,9.165-8.689c5.884-4.125,8.221,2.355,9.896,7.26c5.704-3.518,8.654-7.518,1.756-12.664
			c-4.902-3.658-4.654-9.83-6.92-14.656c-3.812-8.146-10.875-15.398-8.941-25.898c0.648-3.535,1.57-7.01,2.343-10.512
			c0.563-2.531,2.896-3.299,5.399-3.488c3.188-0.246,3.537,1.65,4.082,4.219c1.166,5.502,5.446,9.266,9.381,4.129
			c8.842-11.529,17.854-4.041,25.721-0.67c7.137,3.066,10.951,9.885,14.093,18.316c3.459,9.271,0.822,14.359-3.852,20.4
			c-2.164,2.813-2.625,5.43-0.421,8.023c4.37,5.15,1.758,9.82-0.608,14.57c-3.175,6.365-12.483,9.131-10.694,18.617
			c0.295,1.543-3.065,3.23-4.76,2.109c-6.16-4.096-14.406-1.676-20.122-6.764c-0.981,0.145-1.905-0.053-2.764-0.539
			c-4.933,4.109-4.94,0.213-5.228-3.232c-3.379,2.48-2.877,6.721-0.395,7.729c4.204,1.707,5.438,8.223,10.646,6.914
			c6.604-1.646,12.707-1.971,19.51-0.164c8.438,2.244,15.392-5.74,12.647-14.02c-0.819-2.471-0.603-3.939,0.996-4.85
			c7.374-4.188,7.79-12.959,12.813-18.918c7.836-9.285,1.119-20.156,0.391-30.408c-0.646-9.002-5.006-18.391,3.266-26.734
			c2.896-2.932,3.648-7.188-0.91-11.506c-7.741-7.322-5.838-10.01,3.705-15.809c7.14-4.336,17.705-6.639,17.935-18.252
			c-10.188,6.168-23.088,4.396-33.154,12.361c-4.372,3.449-12.691,2.252-18.687-2.104c-2.399-1.74-5.803-5.691-8.331-2.436
			c-2.892,3.729,1.848,5.143,4.497,6.914c2.863,1.916,3.709,5.195,5.058,8.215c1.653,3.699,1.315,10.682,9.083,6.568
			c1.499-0.801,2.879,1.139,2.99,3.016c0.113,1.928,0.818,4.076-0.7,5.66c-1.247,1.297-2.938,1.377-4.323-0.07
			c-1.091-1.139-1.75-2.473-3.947-1.984c-12.948,2.832-24.043-1.336-34.017-9.42c-2.085-1.688-4.579-2.645-7.024-3.592
			c-6.967-2.705-11.965-6.918-12.316-15.01c-0.073-1.699-0.369-3.347-2.326-3.859c-1.956-0.518-3.031,0.718-3.879,2.232
			c-2.18,3.898-6.542,7.213-4.706,12.352c2.57,7.211-2.907,6.123-5.373,4.422c-6.554-4.531-10.094-2.246-14.819,3.033
			c-4.419,4.938-11.642,6.322-18.101,6.715c-3.995,0.238-9.052-0.283-10.075-6.912c-0.842-5.457-4.38-8.555-9.457-2.957
			c-2.024,2.23-4.369,2.355-7.064,2.605c-3.388,0.316-5.694,2.107-3.948,6.02c1.136,2.545,2.381,5.211-0.909,6.791
			c-4.742,2.271-8.02,7.234-13.554,7.781c-3.942,0.391-1.044-5.846-5.245-5.98c-2.976,2.313-5.374,6.391-3.879,9.189
			c4.157,7.818-2.12,16.74,3.606,24.324c2.021,2.678-8.267,10.217-13.603,8.689c-5.279-1.51-9.349,0.422-12.864,2.895
			c-3.605,2.514-6.191,2.158-9.925,0.811c-8.878-3.188-15.453,1.893-15.258,11.453c0.165,8.254,0.586,16.508,0.894,24.752
			c0.266,1.541-0.817,3.818,2.131,3.885c-1.812-9.98,0.907-19.541,2.882-29.15c1.136-5.49,9.246-7.705,12.589-2.771
			c2.451,3.625,5.343,4.492,7.695,3.1c9.714-5.766,18.526-0.418,27.792,1.004c7.324,1.113,8.37-5.865,7.809-10.096
			c-0.747-5.525-2.287-11.316,3.364-13.639c5.192-2.141,8.449,1.844,9.921,7.525c1.036,3.953,5.131,1.219,7.684,1.232
			c9.585,0.059,17.176,8.1,14.321,16.852c-1.731,5.313,4.409,11.291-1.314,15.348c-4.696,3.322-11.25-0.121-16.041,1.992
			c-5.496,2.428-13.983,0.813-15.757,9.729c-0.223,1.154-1.31,2.979-4.139,1.184c-8.69-5.529-11.14-9.182-14.831,1.162
			c12.271,1.295,23.205,2.584,32.777-4.871c2.502-1.949,4.869-1.467,7.333-1.613c6.912-0.422,13.856-0.982,20.761-0.744
			c4.293,0.154,6.178-2.813,7.469-5.324c1.222-2.377-1.269-5.223-3.507-6.611c-6.076-3.785-11.14-7.117-7.08-15.988
			c1.737-3.82-4.753-5.969-6.555-9.908c-1.381-3.035-6.253-4.023-6.189-9.443c0.036-2.932-3.505-1.549-5.979-0.396
			c-4.103,1.914-7.205,1.645-9.955-3.484c-2.753-5.121-0.485-6.705,2.733-9.57c3.642-3.242,8.686-4.969,10.422-10.545
			c1.456-4.686,7.415-5.32,9.96-3.715c7.748,4.895,12.344,2.59,17.885-4.656c0.187,4.979,2.177,10.881,0.199,14.76
			c-4.674,9.137,4.738,10.563,7.162,15.59c1.737,3.604,3.968-2.381,6.505-1.125c0.007,11.174-2.28,21.734-7.738,31.621
			c-0.817,1.482-0.603,5.303,0.168,5.629c8.084,3.475,7.554,13.313,14.521,18.531C208.881,437.899,214.529,443.11,218.482,448.913z"
			/>
		<path fill="#F7ED38" stroke="#F7ED38" stroke-width="2" stroke-miterlimit="10" d="M68.929,428.708
			c-0.32-8.576-0.738-17.146-0.938-25.732c-0.208-8.639,6.822-13.6,14.759-10.373c4.048,1.641,6.94,2.145,11.075-1.285
			c2.577-2.143,7.017-5.182,12.789-2.117c4.06,2.158,8.835-3.613,12.823-6.164c4.234-2.699-3.029-4.844-2.328-6.557
			c3.642-8.852-3.802-17.545,0.141-26.293c0.79-1.738,1.639-4.307,2.992-4.17c2.083,0.203,4.142,1.969,1.436,4.5
			c0.702,0.629,1.329,1.648,2.127,1.824c7.071,1.512,9.387-6.316,14.979-7.729c4.357-1.111,2.091-3.447,1.349-5.721
			c-1.932-5.971-1.571-6.887,5.137-6.488c3.228,0.188,4.104-1.688,5.329-3.178c5.477-6.674,9.597-1.578,9.715,2.633
			c0.244,8.961,7.443,8.045,10.966,7.252c7.03-1.58,15.267-1.939,19.781-9.77c2.373-4.115,6.566-4.102,9.93-0.771
			c2.569,2.535,5.667,2.574,7.997,1.219c3.414-1.994-1.229-3.473-1.196-5.557c0.088-5.803,4.218-9.654,7.116-13.847
			c1.141-1.649,4.746-0.604,4.55,3.47c-0.396,8.25,4.992,12.488,11.649,15.594c9.729,4.527,18.11,11.764,29.082,13.895
			c3.905,0.762,7.644,1.055,11.229-0.252c1.818-0.666,3.708-2.688,4.534,0.152c1.095,3.777,3.979,2.67,5.174,1.688
			c2.235-1.834,0.901-5.047,0.558-7.422c-0.449-3.131-3.373-2.645-5.217-1.271c-4.494,3.332-3.441,0.096-4.943-2.77
			c-2.713-5.15-2.811-12.555-10.474-14.523c-2.389-0.613-2.964-3.703-1.446-5.734c1.826-2.449,3.463,0.217,4.785,1.119
			c11.344,7.777,22.228,7.604,32.837-1.396c1.143-0.971,2.801-2.219,4.022-2.031c7.063,1.097,13.026-1.795,19.041-4.666
			c-0.022-0.66-0.049-1.323-0.074-1.983c-9.799,0.592-20.396,2.378-29.194,0.274c-7.085-1.694-16.097-5.393-21.785-12.232
			c-10.061-12.103-22.365-12.812-34.088-2.662c-9.584,8.301-20.512,11.04-32.854,5.884c-2.495-1.036-6.321-1.417-8.488-0.217
			c-7.44,4.123-15.728,2.703-23.484,4.466c-4.971,1.126-5.876,5.224-6.471,8.319c-1.204,6.2-5.611,9.479-10.968,6.11
			c-3.002-1.885-5.806-2.858-7.43,0.346c-7.106,14.004-20.636,18.322-33.857,23.152c-4.237,1.555-5.17,3.379-1.107,6.207
			c3.422,2.391,2.932,4.127,0.71,7.797c-3.384,5.6-7.21,10.986-5.551,19.271c1.011,5.023-8.158,4.229-12.591,6.383
			c-0.8,0.387-2.649-1.32-3.408-0.924c-7.395,3.936-11.969,11.111-20.219,15.02c-6.425,3.049-7.959,14.037-3.118,23.023
			C68.492,418.522,64.756,424.485,68.929,428.708z"/>
		<path fill="#F7ED38" stroke="#F7ED38" stroke-width="2" stroke-miterlimit="10" d="M245.775,435.985
			c6.718,2.092,13.526,3.922,20.119,6.338c5.125,1.873,7.752,0.104,7.553-4.861c-0.201-5.102,1.353-7.379,5.84-10.646
			c5.529-4.02,10.438-11.322,4.602-19.307c-2.115-2.895-1.688-4.672-0.029-7.668c3.354-6.064,9.554-9.973,4.435-20.361
			c-3.894-7.902-7.245-15.908-14.521-18.967c-7.477-3.143-16.7-11.146-25.166,0.82c-3.616,5.115-8.164,2.082-9.695-3.398
			c-0.66-2.363,0.664-5.354-3.805-4.941c-3.782,0.346-5.556,1.541-6.236,5.645c-1.57,9.479-3.148,17.746,3.888,26.994
			c5.681,7.469,6.312,18.375,13.745,25.947c2.766,2.82-1.818,6.699-5.279,8.709c0.069,4.064,1.106,8.25-1.535,11.965
			c0.066,2.672-0.051,5.549,4.108,3.813c-3.062-4.934,0.419-9.322,2.92-11.936c7.815-8.189,5.284-16.15,1.458-24.6
			c-2.787-6.162-5.715-12.293-6.607-19.121c-0.159-1.234-1.846-3.199-0.782-3.486c6.589-1.797,8.086-9.4,13.323-11.805
			c5.207-2.383,11.703-3.045,16.15,2.764c2.422,3.156,9.92-1.152,9.153,7.145c-0.763,8.287,2.79,18.066-5.874,23.461
			c-9.695,6.029-7.604,14.268-5.707,22.158c3.038,12.637,0.607,16.186-11.84,14.125
			C252.323,434.157,248.782,432.079,245.775,435.985z"/>
		<path fill="#F7ED38" stroke="#F7ED38" stroke-width="2" stroke-miterlimit="10" d="M347.21,283.394
			c-8.401-1.398-16.438-1.699-23.103,5.211c-4.965,5.138-10.248,4.492-15.647,0.107c-1.832-1.488-2.787-5.626-6.983-2.584
			c-9.287,6.725-18.186,1.177-25.425-3.434c-6.644-4.23-13.102-5.504-20.351-5.797c14.259,8.02,27.215,19.249,45.142,18.164
			c1.919-0.117,4.64-0.929,5.646,0.015c11.342,10.583,17.664-0.234,24.641-5.983c4.258-3.507,7.135-5.712,10.359,0.469
			C344.251,288.299,346.156,286.243,347.21,283.394z"/>
		<path fill="#F7ED38" stroke="#F7ED38" stroke-width="2" stroke-miterlimit="10" d="M391.48,353.168
			c3.672-0.379,8.403,1.164,9.606-4.139c0.43-1.861,3.273-3.027,1.777-5.096c-1.836-2.529-3.109,0.168-4.756,0.768
			c-3.267,1.197-1.826-0.699-1.939-2.648c-0.141-2.459-2.928-0.453-4.516-0.719c-2.103-0.332-2.711,1.012-2.521,3.008
			c0.226,2.293,0.199,4.611,0.285,6.918C390.779,351.174,391.462,351.813,391.48,353.168z"/>
		<path fill="#F7ED38" stroke="#F7ED38" stroke-width="2" stroke-miterlimit="10" d="M339.58,291.614
			c-6.654,0.157-11.516,3.582-15.553,8.521C334.824,304.085,334.824,304.085,339.58,291.614z"/>
		<path fill="#F7ED38" stroke="#F7ED38" stroke-width="2" stroke-miterlimit="10" d="M7.014,258.415
			c2.402,12.432-2.004,24.767-0.588,37.193c0.096,0.803-0.396,1.907-0.986,2.513c-8.146,8.396-3.232,18.554-3.833,27.954
			c2.03,0.516,3.907,1.711,3.951,3.764c0.168,7.291,1.472,14.529,0.969,21.838c5.385,6.621,3.59,15.875,8.62,22.822
			c3.03,4.189,4.489,9.496,6.664,14.313c10.671,14.221,22.056,27.945,29.46,44.365c1.348,2.979,5.853,5.594,7.58,4.744
			c4.397-2.166-0.111-4.922-1.188-7.182c-4.636-9.756-3.13-21.043-7.719-30.705c-4.392-9.25-2.042-19.395-4.438-29.074
			c-1.901-7.672-7.497-12.848-9.275-20.076c-0.333-1.346-1.433-3.758-1.394-3.771c15.79-6.512,4.977-16.313,2.16-23.881
			c-3.897-10.477-4.818-10.121,5.882-12.6c0.575-0.132,1.043-0.799,1.611-0.914c2.614-0.52,1.086-8.13,6.301-3.824
			c3.558,2.938,1.903,7.344,1.776,10.998c-0.091,2.789-5.655,5.111-1.047,8.521c3.513,2.592,3.98-2.156,6.125-2.885
			c6.562-2.219,2.005-5.721,1.131-8.818c-0.074-0.277,0.112-0.633,0.338-1.762c2.354-0.086,4.969-0.596,7.437-0.207
			c14.981,2.354,17.754,1.729,25.164-11.638c4.878-8.789,13.686-6.888,20.691-9.681c2.354-0.939,5.534-0.769,6.413-3.377
			c1.271-3.788-3.172-3.231-4.84-4.642c-3.809-3.213-3.888-6.355-1.307-9.933c2.143-2.98,3.389-5.023,8.898-5.504
			c8.44-0.744,21.949,5.972,25.344-9.739c0.28-1.306,1.974-2.184,3.924-2.305c3.986-0.259,9.932-1.062,8.302-5.951
			c-1.653-4.974-6.45-10.822-13.464-6.701c-4.408,2.586-4.818-0.62-6.438-2.687c-10.024,2.713-20.044,3.691-30.386,1.369
			c-1.88-0.42-5.907-2.371-7.189,2.017c1.679,0.151,2.728,1.679,4.454,1.881c2.456,0.291,5.951-1.909,7.161,1.072
			c1.323,3.256,0.887,7.157,0.58,10.772c-0.113,1.296-1.503,3.252-2.231,2.961c-7.712-3.095-12.386,3.864-18.583,5.175
			c-5.239,1.107-10.126,1.254-13.57,6.274c-1.616,2.351-4.703,1.855-7.218,0.439c-3.215-1.805-6.274-2.824-10.209-1.454
			c-4.728,1.638-8.302-3.923-13.092-3.131c-3.657,0.609-3.682,6.434-10.057,5.044c-6.404-1.394-14.922,12.854-13.336,20.09
			c0.369,1.66,1.152,3.562-0.009,4.691c-5.695,5.534-7.249,13.23-9.624,20.109c-2.425,7.018,0.359,14.963-0.173,22.596
			c-9.138-13.396-11.067-25.313-5.335-41.221c3.731-10.343,2.231-20.886,2.576-31.302c0.201-6.279,3.025-9.779,7.381-12.902
			c3.736-2.678,7.76-4.976,7.906-10.334c-3.41-1.386-9.97,5.641-10.471-4.27c-0.118-2.337-4.624-1.68-6.593-0.593
			c-3.741,2.064-4.419,6.551-1.771,8.958C15.761,253.54,10.809,255.608,7.014,258.415z"/>
		<path fill="#F7ED38" stroke="#F7ED38" stroke-width="2" stroke-miterlimit="10" d="M28.287,243.729
			c0.962,4.126-2.3,6.504-4.726,7.907c-12.005,6.935-12.9,17.297-9.663,28.993c1.793,6.491-1.859,12.47-3.923,17.103
			c-6.388,14.336-1.325,26.334,3.725,38.897c0.54,1.328,0.479,2.904,2.346,4.27c-0.157-4.182-0.077-8.389-0.516-12.535
			c-0.724-6.777,0.96-12.928,2.866-19.428c2.091-7.137,10.862-12.025,5.971-22.104c-2.177-4.48,13.663-11.103,17.252-14.691
			c7.937-7.94,15.48,0.082,21.914-2.466c6.157-2.44,9.063,6.175,14.355,2.207c4.305-3.22,7.776-8.182,14.272-6.74
			c2.652,0.585,4.046-1.222,5.884-2.635c2.148-1.649,5.305-4.093,7.239-3.519c5.836,1.724,9.19,2.086,8.801-5.73
			c-0.283-5.689,0.141-10.774-8.173-8.336c-1.126,0.333-2.815-1.25-4.247-1.953c-11.397-0.826-22.474-4.928-34.18-2.77
			c-6.461,1.189-12.866,3.307-19.51-1.019C40.412,234.248,34.246,239.469,28.287,243.729z"/>
		<path fill="#F7ED38" stroke="#F7ED38" stroke-width="2" stroke-miterlimit="10" d="M-19.229,140.353
			c-0.048-1.318-0.1-2.641-0.148-3.962c-0.166-7.711-9.108-11.526-8.664-19.516c-7.973,4.375-10.29,12.378-12.112,20.211
			c-1.457-0.074-2.503-0.232-2.535-0.633c-0.484-6.265,4.439-12.97-4.822-18.244c-4.546-2.591-3.485-11.37-2.422-17.493
			c0.994-5.769,4.635-11.229,0.854-17.332c-0.792-1.286,0.063-3.731,1.685-4.18c5.722-1.582,11.032-2.927,10.425-10.909
			c-0.096-1.296,3.855-1.197,5.742,0.665c1.97,1.957,1.957,5.724,5.6,6.16c6.629-7.67,10.572-17.57,21.944-21.054
			C3.71,51.803,7.32,48.713,9.52,55.704c11.113,1.414,21.414,4.367,29.823-4.158c3.211-3.261,4.631-4.993-0.792-7.995
			c-12.135-6.719-24.105-9.449-38.484-8.449c-8.43,0.586-13.643,5.674-20.783,6.821c-7.705,1.245-9.112,5.878-7.365,12.26
			c-3.313,2.25-9.292-6.927-10.011,2.585c-0.399,5.315-7.271,5-7.479,10.048c-0.098,2.16-0.003,4.211-1.85,6.185
			c-8.425,8.997-7.024,20.388-6.889,31.346c0.011,1.383,1.797,2.059,0.639,4.557c-2.847,6.137-5.96,13.309,5.281,15.153
			c0.64,0.105,1.696,4.582,0.954,5.249c-7.154,6.449-1.722,11.395,1.889,16.169c5.911,7.83,6.251,17.565,9.738,26.19
			c1.732,4.274,5.258,6.185,9.757,4.678c5.995-2.013-1.243-4.326-0.03-6.655c4.774-9.196-0.469-18.772,0.949-28.101
			C-24.288,136.057-20.854,142.428-19.229,140.353z"/>
		<path fill="#F7ED38" stroke="#F7ED38" stroke-width="2" stroke-miterlimit="10" d="M404.591,279.269
			c-3.914,9.079-9.973,5.049-15.772,2.571c-0.832,15.326,11.854,10.337,19.381,13.111
			C412.316,288.372,405.06,284.625,404.591,279.269z"/>
		<path fill="#F7ED38" stroke="#F7ED38" stroke-width="2" stroke-miterlimit="10" d="M359.021,280.972
			c-4.622,6.122,0.988,11.865,0.671,17.832c1.231,0.886,3.403,1.641,3.555,2.68c1.313,9.292,7.813,9.18,14.719,8.541
			c1.479-0.256,3.588,0.465,3.765-1.963c0.131-1.769-1.063-2.096-2.563-1.539c-3.26,2.82-6.898,2.664-9.805,0.051
			c-2.394-2.151-3.326-5.306,0.043-7.922c0.309-2.035-0.052-4.07,0.01-6.104C365.773,288.845,356.941,289.804,359.021,280.972z"/>
		<path fill="#F7ED38" stroke="#F7ED38" stroke-width="2" stroke-miterlimit="10" d="M359.021,280.972
			c-2.186,8.905,6.746,7.817,10.354,11.515c0.602-2.322,2.041-4.403,4.424-3.873c2.295,0.505,1.564,2.917,1.105,4.721
			c0.703,0.64,1.53,0.904,2.469,0.841c1.635-2.442,2.152-5.12,1.688-8.004c-0.657,0.025-1.319,0.05-1.981,0.075
			c-5.506,0.27-9.797-0.376-7.125-7.811c0.783-2.173-1.299-3.19-3.221-3.707C364.16,276.809,361.591,278.889,359.021,280.972z"/>
		<path fill="#F7ED38" stroke="#F7ED38" stroke-width="2" stroke-miterlimit="10" d="M377.371,294.174
			c-0.658,0.024-1.316,0.049-1.979,0.074c0.097,1.858,0.535,3.883-2.094,4.474c-0.352,4.675,2.935,6.096,6.502,7.262
			c1.445,0.132,2.414,0.738,2.033,2.369c-0.516,2.238-2.445,1.406-3.871,1.67c2.537,0.979,4.23,6.365,7.914,1.312
			c3.744-5.146-2.02-7.084-3.764-7.166C373.365,303.775,382.833,295.496,377.371,294.174z"/>
		<path fill="#F7ED38" stroke="#F7ED38" stroke-width="2" stroke-miterlimit="10" d="M366.73,274.729
			c1.819,0.775,4.188,1.208,3.131,4.106c-2.742,7.52,2.02,7.662,7.215,7.411c-1.24-2.004-0.199-4.321-0.449-5.992
			C375.89,275.256,373.71,269.861,366.73,274.729z"/>
		<path fill="#F7ED38" stroke="#F7ED38" stroke-width="2" stroke-miterlimit="10" d="M6.526,351.674
			c-0.952-8.664,2.896-18.252-4.92-25.6C1.814,334.883,3.049,343.499,6.526,351.674z"/>
		<path fill="#F7ED38" stroke="#F7ED38" stroke-width="2" stroke-miterlimit="10" d="M-25.628,75.12
			c-2.939-0.615-3.642-3-4.818-5.342c-0.707-1.411-2.482-2.7-4.964-2.308c-3.225,0.511-2.356,2.587-2.201,4.333
			c0.154,1.761-0.241,3.075-1.442,4.408c-2.774,3.083-11.479,0.66-9.727,5.41c4.463,12.116-7.225,24.207,1.027,35.542
			c4.07,5.584,8.826,10.654,4.564,18.224c-0.096,0.18,1.099,1.521,1.815,1.657c1.754,0.33,1.964-0.981,2.115-2.404
			c0.82-7.745,4.737-13.575,11.217-17.765c2.848-7.21,3.276-14.302,1.426-22.084C-28.109,88.485-28.054,81.572-25.628,75.12z"/>
		<path fill="#F7ED38" stroke="#F7ED38" stroke-width="2" stroke-miterlimit="10" d="M245.775,435.985
			c3.804-5.775,9.231-1.268,13.627-1.52c7.851-0.457,12.361-3.738,9.445-11.125c-1.888-4.775-1.664-9.35-2.259-14.039
			c-0.481-3.818,0.529-5.986,4.312-8.352c7.953-4.973,12.078-21.939,8.336-29.816c-2.62-5.516-22.188-9.566-26.662-5.121
			c-3.623,3.602-5.438,8.553-11.253,10.5c-2.185,0.734,0.587,6.344,1.388,9.6c1.828,7.432,6.016,13.977,8.186,21.42
			c1.81,6.213,0.707,10.332-3.006,15.088c-2.916,3.732-7.09,7.666-4.093,13.439C244.456,436.034,245.114,436.008,245.775,435.985z"
			/>
		<path fill="#F7ED38" stroke="#F7ED38" stroke-width="2" stroke-miterlimit="10" d="M82.811,278.284
			c3.225,2.092,4.281,5.423,8.091,4.784c4.011-0.67,2.04-3.5,2.043-5.324c0.019-4.75-3.911-2.058-5.944-2.498
			C85.949,275.014,84.412,277.054,82.811,278.284z"/>
		<path fill="#F7ED38" stroke="#F7ED38" stroke-width="2" stroke-miterlimit="10" d="M127.401,250.339
			c0.709,1.427,0.198,3.993,1.642,2.813c3.187-2.617,9.076,0.362,10.427-5.223c0.308-1.277-0.638-2.794-2.232-2.297
			C133.742,246.716,129.673,246.936,127.401,250.339z"/>
		<path fill="#F7ED38" stroke="#F7ED38" stroke-width="2" stroke-miterlimit="10" d="M48.907,290.268
			c1.753,1.775,2.87,2.899,3.985,4.029c1.946-2.355,6.327-2.184,6.695-5.982c0.215-2.224-1.958-2.501-3.438-1.911
			C53.747,287.363,51.551,288.82,48.907,290.268z"/>
		<path fill="#F7ED38" stroke="#F7ED38" stroke-width="2" stroke-miterlimit="10" d="M379.8,305.983
			c-3.713-1.25-7.447-2.476-6.244-7.697c-2.883-0.482-0.823,4.031-3.317,3.43c-1.148-0.279-0.408-2.153-0.642-3.282
			c-3.729,2.757-2.483,6.254-0.004,8.29C372.66,309.227,376.677,310.007,379.8,305.983z"/>
		<path fill="#F7ED38" stroke="#F7ED38" stroke-width="2" stroke-miterlimit="10" d="M369.597,298.433
			c0.791,0.921-1.537,3.993,1.859,2.88c0.473-0.153-0.037-2.888,2.1-3.027c2.939-0.291,1.689-2.482,1.836-4.037
			c-0.688-1.913,1.384-5.034-1.684-5.697c-2.314-0.5-3.783,1.606-4.334,3.935C369.449,294.471,369.523,296.451,369.597,298.433z"/>
	</g>
</g>
<path fill="#333333" stroke="#333333" stroke-width="3" stroke-miterlimit="10" d="M436.734,312.661
	c2.491-5.809-2.687-10.361-2.572-15.774c5.627-4.428-2.457-10.659,2.881-16.648c3.746-4.206,4.9-11.777,11.33-18.271
	c-20.23,2.607-36.631,11.592-54.73,12.627c-0.584-2.118-1.95-3.385-4.106-3.812c-2.219-7.039-6.812-5.992-12.438-4.335
	c-15.108,4.452-30.24,9.058-45.652,12.164c-8.26,1.664-16.651-2.093-23.676-6.586c-5.002-3.196-9.803-3.615-15.313-3.67
	c-14.604-0.149-30.026,5.049-43.531-3.2c-11.381-6.956-22.956-13.291-35.082-18.73c-3.129-1.405-6.131-3.304-9.819-2.439
	c-11.929-6.364-24.797-7.232-37.939-6.518c-1.983,0.074-3.966,0.148-5.94,0.222c-0.384-2.242-1.888-2.108-3.648-1.887
	c-28.749,3.623-57.146-4.249-85.814-2.624c-4.205,0.241-5.77-2.708-8.019-4.763c-21.539-19.699-39.645-42.333-56.131-66.328
	c-5.676-10.371-11.358-20.739-17.035-31.109c-2.524-12.092-3.025-24.368-3.397-36.666c-0.213-7.004,1.37-13.965,3.986-19.957
	C-5.53,64.335,1.476,56.135,14.575,58.62c15.172,5.948,29.851,3.874,38.197-4.996c4.178-4.437,4.628-8.222-0.179-12.36
	c-4.102-3.528-8.035-6.352-13.842-7.705c-12.296-2.875-24.506-8.98-36.934-7.561c-10.49,1.2-22.706,2.686-30.205,12.185
	c-9.872,12.512-18.81,26.159-23.401,41.277c-5.256,17.299-5.5,34.975-0.878,53.489c5.82,23.29,18.059,42.498,30.668,61.947
	c1.143,5.051,4.067,8.818,8.369,11.591c8.321,11.803,14.2,24.839,19.138,38.318c0.853,2.337,1.871,3.908,4.282,4.453
	c-5.798,5.56-1.693,12.987-0.559,17.681c2.231,9.127-1.192,16.695-3.305,24.063c-6.744,23.53-3.402,45.729,5.33,67.714
	c5.76,14.5,11.778,28.906,17.709,43.336c2.478,6.039-0.461,10.998-2.933,16.131c-3.394,7.061-5.097,14.795-12.351,19.857
	c-11.676,8.162-13.188,21.297-13.002,34.004c0.061,4.496-5.532,9.305,0.088,13.646c-2.296,13.736-2.2,27.307,1.4,40.926
	c1.77,6.707,1.295,13.877,2.298,20.824c1.359,9.395,5.211,13.746,13.719,14.334c7.754,0.523,15.599,0.104,23.384-0.252
	c2.162-0.1,1.425-2.49,1.564-4.01c5.249-9.439-1.845-15.17-7.224-20.42c-2.557-2.484-3.683-4.213-3.798-7.504
	c-0.525-15.273-0.796-30.504,4.32-45.23c7.373-0.373,10.52-7.424,16.333-10.361c6.648-3.363,10.139-2.605,13.504,4.918
	c4.087,9.125,3.703,19.355,8.53,28.197c1.377,2.539,1.608,5.688,4.426,7.391c1.123,13.834,9.878,24.092,16.561,35.32
	c0.311,0.529,0.463,1.154,0.694,1.734c8.592,20.551,15.187,26.781,34.542,24.549c4.245-0.488,8.572-0.715,12.827-0.451
	c4.426,0.268,5.966-1.979,7.523-5.635c1.559-3.662,2.663-7.182-1.052-9.365c-3.204-1.875-2.85-7.734-8.127-6.842
	c-6.783-2.822-9.129-9.48-13.084-14.822c-6.649-8.996-12.839-17.979-15.206-29.334c-1.49-7.189-0.715-14.572-0.91-21.5
	c-0.411-15.121-0.157-30.801,5.192-45.549c0.102-0.283-0.01-0.654-0.022-0.982c11.001,1.834,21.771,1.422,32.805-1.049
	c19.957-4.459,40.126-5.264,59.88,1.521c3.765,1.289,7.148,3.689,10.709,5.584c9.156,8.066,16.521,16.77,11.705,30.34
	c-0.312,0.875,1.486,2.781,3.423,2.82c-0.668,2.354-1.975,4.279-1.845,7.137c0.772,16.676-1.411,33.504-0.89,49.885
	c0.322,10.006-3.369,23.014,6.063,32.139c0.119,5.547,4.612,8.455,8.438,9.621c10.51,3.201,21.371,2.215,31.902-0.746
	c4.572-1.285,6.055-5.498,5.129-9.51c-1.199-5.195-3.486-10.258-10.179-10.607c-16.036-7.896-14.313-22.926-8.896-38.182
	c2.813-7.928,5.158-15.783,6.494-23.994c0.783-4.814,1.584-5.678,6.301-2.406c12.728,8.818,25.847,17.145,40.187,23.258
	c13.197,8.35,24.156,19.258,34.865,30.438c4.066,4.52,2.85,11.93,8.52,15.559c4.291,9.723,19.769,15.77,28.688,11.219
	c9.555-4.883,11.158-14.328,4.479-26.342c-4.969-8.453-8.651-18.115-15.239-25.018c-7.313-7.678-12.027-17.174-19.699-24.604
	c-3.135-3.041-6.799-5.307-10.014-7.971c-7.633-6.309-14.107-13.941-21.691-19.967c-14.625-11.627-9.164-25.541-1.154-35.52
	c9.297-11.582,19.787-22.211,28.564-34.262c3.195-4.469,5.756-9.623,9.715-13.24c9.146-8.357,16.996-7.682,31.82,1.047
	c7.758,4.564,15.707,7.566,23.479-0.158c9.992-1.729,14.479-7.77,15.068-20.502c0.121-2.607-0.162-5.219-0.254-7.83
	c0.299-3.104,5.076-4.188,3.666-8.074c6.67-6.281,3.213-14.215,2.914-21.324C442.837,324.485,439.822,318.415,436.734,312.661z"/>
</svg>
