<?xml version="1.0" encoding="utf-8"?>
<!-- Generator: Adobe Illustrator 16.0.3, SVG Export Plug-In . SVG Version: 6.00 Build 0)  -->
<!DOCTYPE svg PUBLIC "-//W3C//DTD SVG 1.1//EN" "http://www.w3.org/Graphics/SVG/1.1/DTD/svg11.dtd">
<svg version="1.1" id="Layer_1" xmlns="http://www.w3.org/2000/svg" xmlns:xlink="http://www.w3.org/1999/xlink" x="0px" y="0px"
	 width="163.494px" height="162.494px" viewBox="167.754 231.318 163.494 162.494"
	 enable-background="new 167.754 231.318 163.494 162.494" xml:space="preserve">
<g>
	<path fill="none" stroke="#333333" stroke-width="10" stroke-miterlimit="10" d="M313.754,309.813c0,34.471,0,67,0,67
		c0,6.627-5.373,12-12,12h-117c-6.627,0-12-5.373-12-12v-117c0-6.627,5.373-12,12-12c0,0,32.383,0,67,0"/>
</g>
<g>
	<g>
		<path fill="#333333" d="M249.618,324.675c21.331-21.331,42.662-42.662,63.994-63.993c8.215-8.214-4.514-20.942-12.729-12.727
			c-21.331,21.33-42.662,42.661-63.994,63.991C228.675,320.161,241.403,332.889,249.618,324.675L249.618,324.675z"/>
	</g>
</g>
<g>
	<g>
		<path fill="#333333" d="M278.248,249.318c14.667,0,29.333,0,44,0c-3-3-6-6-9-9c0,14.667,0,29.333,0,44c0,11.607,18,11.607,18,0
			c0-14.667,0-29.333,0-44c0-4.906-4.094-9-9-9c-14.667,0-29.333,0-44,0C266.641,231.318,266.641,249.318,278.248,249.318
			L278.248,249.318z"/>
	</g>
</g>
</svg>
