<?xml version="1.0" encoding="utf-8"?>
<!-- Generator: Adobe Illustrator 16.0.3, SVG Export Plug-In . SVG Version: 6.00 Build 0)  -->
<!DOCTYPE svg PUBLIC "-//W3C//DTD SVG 1.1//EN" "http://www.w3.org/Graphics/SVG/1.1/DTD/svg11.dtd">
<svg version="1.1" id="Layer_1" xmlns="http://www.w3.org/2000/svg" xmlns:xlink="http://www.w3.org/1999/xlink" x="0px" y="0px"
	 width="180px" height="180px" viewBox="161.754 172.813 180 180" enable-background="new 161.754 172.813 180 180"
	 xml:space="preserve">
<path fill="#333333" d="M326.432,176.646H177.076c-6.345,0-11.489,5.143-11.489,11.489V337.49c0,6.346,5.144,11.49,11.489,11.49
	h80.157v-69.129h-19.481V257.13h19.481v-14.057c0-19.255,9.051-30.038,31.772-30.038c7.896,0,11.431,0.07,18.758,1.109
	l-0.479,21.143c-3.851-0.771-7.303-0.787-10.577-0.787c-8.857,0-11.747,5.492-11.747,11.654v10.976h22.145l-1.927,22.721H284.96
	v69.129h41.472c6.345,0,11.489-5.145,11.489-11.49V188.134C337.921,181.789,332.776,176.646,326.432,176.646z"/>
</svg>
