<?xml version="1.0" encoding="utf-8"?>
<!-- Generator: Adobe Illustrator 16.0.3, SVG Export Plug-In . SVG Version: 6.00 Build 0)  -->
<!DOCTYPE svg PUBLIC "-//W3C//DTD SVG 1.1//EN" "http://www.w3.org/Graphics/SVG/1.1/DTD/svg11.dtd">
<svg version="1.1" id="Layer_1" xmlns="http://www.w3.org/2000/svg" xmlns:xlink="http://www.w3.org/1999/xlink" x="0px" y="0px"
	 width="696.89px" height="610.776px" viewBox="-91 -49.146 696.89 610.776" enable-background="new -91 -49.146 696.89 610.776"
	 xml:space="preserve">
<path fill="#333333" d="M582.153,501.639L467.702,387.186c34.494-44.143,55.056-99.699,55.056-160.063
	c0-143.696-116.487-260.184-260.182-260.184C118.88-33.062,2.393,83.426,2.393,227.122S118.88,487.307,262.576,487.307
	c60.362,0,115.92-20.563,160.063-55.057l114.45,114.453c4.458,4.455,11.685,4.457,16.141,0l28.924-28.924
	C586.609,513.322,586.609,506.096,582.153,501.639z M262.576,439.313c-117.189,0-212.19-95.002-212.19-212.191
	c0-117.19,95-212.189,212.19-212.189c117.188,0,212.188,95,212.188,212.189C474.764,344.311,379.765,439.313,262.576,439.313z"/>
<path fill="#FFFF33" d="M570.153,501.639L455.702,387.186c34.494-44.143,55.056-99.699,55.056-160.063
	c0-143.696-116.487-260.184-260.182-260.184C106.88-33.062-9.607,83.426-9.607,227.122S106.88,487.307,250.576,487.307
	c60.363,0,115.92-20.563,160.063-55.057l114.45,114.453c4.458,4.455,11.685,4.457,16.141,0l28.924-28.924
	C574.609,513.322,574.609,506.096,570.153,501.639z M250.576,439.313c-117.189,0-212.189-95.002-212.189-212.191
	c0-117.19,95-212.189,212.189-212.189s212.188,95,212.188,212.189C462.764,344.311,367.765,439.313,250.576,439.313z"/>
</svg>
