<?xml version="1.0" encoding="utf-8"?>
<!-- Generator: Adobe Illustrator 16.0.3, SVG Export Plug-In . SVG Version: 6.00 Build 0)  -->
<!DOCTYPE svg PUBLIC "-//W3C//DTD SVG 1.1//EN" "http://www.w3.org/Graphics/SVG/1.1/DTD/svg11.dtd">
<svg version="1.1" id="Layer_1" xmlns="http://www.w3.org/2000/svg" xmlns:xlink="http://www.w3.org/1999/xlink" x="0px" y="0px"
	 width="99.414px" height="266.602px" viewBox="0 0 99.414 266.602" enable-background="new 0 0 99.414 266.602"
	 xml:space="preserve">
<g opacity="0.2">
	<path fill="#CC3332" d="M25.391,266.602c1.807-20.05,3.293-42.838,4.456-68.357l3.684-78.125
		c1.291-26.563,2.13-49.414,2.518-68.557c-5.847,3.647-10.296,6.479-13.348,8.496C19.647,62.079,12.079,67.255,0,75.586
		c0.65-8.233,1.202-17.447,1.657-27.645c0.455-10.194,0.684-18.039,0.684-23.527c4.55-2.582,10.464-6.07,17.746-10.461
		c7.281-4.394,11.832-7.202,13.65-8.431C35.556,4.297,38.028,2.454,41.15,0c7.69,0.263,17.01,0.391,27.959,0.391
		c10.688,0,20.789-0.128,30.305-0.391l-2.137,26.563c-0.521,6.122-1.098,14.911-1.745,26.367l-7.765,155.273l-0.582,23.24
		c-0.131,4.818-0.195,9.701-0.195,14.648l0.195,20.508c-8.865-0.26-18.514-0.391-28.943-0.391
		C46.118,266.211,35.168,266.342,25.391,266.602z"/>
</g>
</svg>
