<?xml version="1.0" encoding="utf-8"?>
<!-- Generator: Adobe Illustrator 16.0.3, SVG Export Plug-In . SVG Version: 6.00 Build 0)  -->
<!DOCTYPE svg PUBLIC "-//W3C//DTD SVG 1.1//EN" "http://www.w3.org/Graphics/SVG/1.1/DTD/svg11.dtd">
<svg version="1.1" id="Layer_1" xmlns="http://www.w3.org/2000/svg" xmlns:xlink="http://www.w3.org/1999/xlink" x="0px" y="0px"
	 width="203.32px" height="271.289px" viewBox="0 0 203.32 271.289" enable-background="new 0 0 203.32 271.289"
	 xml:space="preserve">
<g opacity="0.2">
	<path fill="#CC3332" d="M0,271.289c0.393-4.947,0.586-8.917,0.586-11.914l1.172-28.516c16.275-14.569,31.152-28.65,44.631-42.242
		c13.477-13.594,27.244-28.159,41.309-43.705c14.063-15.542,24.674-28.061,31.836-37.558c5.859-7.675,9.766-13.431,11.719-17.27
		c1.953-3.836,3.253-7.086,3.906-9.753c0.65-2.667,0.978-5.365,0.978-8.1c0-7.153-2.147-12.973-6.444-17.462
		c-4.297-4.486-10.189-7.999-17.676-10.535c-7.489-2.536-16.183-3.806-26.074-3.806c-9.116,0-19.014,0.8-29.688,2.398
		c-10.678,1.6-24.414,4.511-41.211,8.734l3.711-19.727c0.781-4.688,1.953-12.564,3.518-23.633C52.344,2.734,81.25,0,108.984,0
		c12.628,0,24.805,1.206,36.521,3.613c11.721,2.411,22.168,6.513,31.35,12.305c9.18,5.795,15.885,12.5,20.117,20.117
		c4.229,7.617,6.348,15.595,6.348,23.926c0,4.95-0.488,9.863-1.465,14.746c-0.979,4.883-2.377,9.345-4.199,13.379
		c-3.519,8.075-7.979,16.211-13.385,24.414s-13.871,19.141-25.396,32.813c-11.523,13.672-24.093,27.67-37.701,41.992
		c-13.608,14.325-28.75,29.364-45.419,45.117h17.776l43.564-0.195c14.454,0,25.068-0.162,31.842-0.488
		c6.771-0.321,14.91-0.941,24.42-1.854c-0.263,4.037-0.686,9.277-1.271,15.725c-0.586,6.445-1.27,15.009-2.051,25.684
		c-29.56-0.26-60.287-0.391-92.188-0.391C58.789,270.898,26.172,271.029,0,271.289z"/>
</g>
</svg>
