<?xml version="1.0" encoding="utf-8"?>
<!-- Generator: Adobe Illustrator 16.0.3, SVG Export Plug-In . SVG Version: 6.00 Build 0)  -->
<!DOCTYPE svg PUBLIC "-//W3C//DTD SVG 1.1//EN" "http://www.w3.org/Graphics/SVG/1.1/DTD/svg11.dtd">
<svg version="1.1" id="Layer_1" xmlns="http://www.w3.org/2000/svg" xmlns:xlink="http://www.w3.org/1999/xlink" x="0px" y="0px"
	 width="198.242px" height="275.977px" viewBox="0 0 198.242 275.977" enable-background="new 0 0 198.242 275.977"
	 xml:space="preserve">
<g opacity="0.2">
	<path fill="#F7F0F0" d="M3.906,265.82C2.862,248.114,1.563,232.813,0,219.922c27.045,9.766,52.072,14.648,75.088,14.648
		c11.441,0,21.811-1.818,31.107-5.457c9.295-3.637,16.645-8.865,22.039-15.686c5.396-6.817,8.094-14.841,8.094-24.063
		c0-7.794-2.243-14.646-6.727-20.557c-4.482-5.911-11.498-10.327-21.047-13.25c-9.552-2.924-21.863-4.386-36.936-4.386
		c-9.616,0-19.556,0.586-29.822,1.758c1.3-15.042,2.344-29.3,3.125-42.773c7.681,1.303,15.234,1.953,22.656,1.953
		c11.456,0,22.363-1.104,32.715-3.32c10.352-2.212,18.39-6.738,24.121-13.574c5.729-6.836,8.594-14.288,8.594-22.363
		c0-3.253-0.488-6.412-1.465-9.473c-0.977-3.058-2.344-5.859-4.102-8.398s-3.974-4.785-6.641-6.738
		c-2.67-1.953-5.634-3.546-8.887-4.785c-3.256-1.236-7.685-2.246-13.281-3.027c-5.6-0.781-11.591-1.172-17.969-1.172
		c-8.594,0-17.48,0.556-26.66,1.66c-9.18,1.108-20.868,3.223-35.059,6.348l3.711-16.211l4.688-25.586
		c14.972-2.081,27.603-3.516,37.891-4.297C75.519,0.391,86.651,0,98.633,0c13.672,0,26.92,1.108,39.746,3.323
		c12.823,2.216,23.795,6.061,32.91,11.533c9.112,5.475,15.851,12.576,20.215,21.307c4.361,8.731,6.543,18.308,6.543,28.732
		c0,6.778-0.977,13.458-2.93,20.038s-4.853,12.671-8.691,18.274c-3.842,5.603-8.139,10.229-12.891,13.879
		c-4.755,3.65-9.408,6.58-13.965,8.795c-4.56,2.216-11.2,4.822-19.922,7.819c9.375,1.431,16.534,3.024,21.484,4.782
		c4.947,1.758,9.83,4.425,14.648,8.002c4.815,3.58,8.917,7.742,12.305,12.491c3.385,4.748,5.924,10.214,7.617,16.394
		c1.69,6.18,2.539,12.652,2.539,19.418c0,12.232-2.899,23.776-8.691,34.641c-5.795,10.864-14.193,19.877-25.195,27.033
		c-11.005,7.156-23.535,12.197-37.598,15.124s-28.711,4.392-43.945,4.392c-11.2,0-22.788-0.717-34.766-2.148
		C36.065,272.394,21.353,269.727,3.906,265.82z"/>
</g>
</svg>
