<?xml version="1.0" encoding="utf-8"?>
<!-- Generator: Adobe Illustrator 16.0.3, SVG Export Plug-In . SVG Version: 6.00 Build 0)  -->
<!DOCTYPE svg PUBLIC "-//W3C//DTD SVG 1.1//EN" "http://www.w3.org/Graphics/SVG/1.1/DTD/svg11.dtd">
<svg version="1.1" id="Layer_1" xmlns="http://www.w3.org/2000/svg" xmlns:xlink="http://www.w3.org/1999/xlink" x="0px" y="0px"
	 width="163.75px" height="105px" viewBox="159.129 231.313 163.75 105" enable-background="new 159.129 231.313 163.75 105"
	 xml:space="preserve">
<path fill="#333333" stroke="#333333" stroke-width="5" stroke-miterlimit="10" d="M221.129,301.563c0,6.627-5.373,12-12,12h-35.5
	c-6.627,0-12-5.373-12-12v-35.5c0-6.627,5.373-12,12-12h35.5c6.627,0,12,5.373,12,12V301.563z"/>
<path fill="none" stroke="#333333" stroke-width="5" stroke-miterlimit="10" d="M320.379,301.563c0,6.627-5.373,12-12,12h-35.5
	c-6.627,0-12-5.373-12-12v-35.5c0-6.627,5.373-12,12-12h35.5c6.627,0,12,5.373,12,12V301.563z"/>
<line fill="none" stroke="#333333" stroke-width="5" stroke-miterlimit="10" x1="241.004" y1="231.313" x2="241.004" y2="336.313"/>
</svg>
