<?xml version="1.0" encoding="utf-8"?>
<!-- Generator: Adobe Illustrator 16.0.3, SVG Export Plug-In . SVG Version: 6.00 Build 0)  -->
<!DOCTYPE svg PUBLIC "-//W3C//DTD SVG 1.1//EN" "http://www.w3.org/Graphics/SVG/1.1/DTD/svg11.dtd">
<svg version="1.1" id="Layer_1" xmlns="http://www.w3.org/2000/svg" xmlns:xlink="http://www.w3.org/1999/xlink" x="0px" y="0px"
	 width="307px" height="307px" viewBox="0 0 307 307" enable-background="new 0 0 307 307" xml:space="preserve">
<circle fill="none" stroke="#FFFFFF" stroke-width="10" stroke-miterlimit="10" cx="153.5" cy="153.5" r="142"/>
<g>
	<g>
		<g>
			<path fill="#FFFFFF" stroke="#FFFFFF" stroke-miterlimit="10" d="M64.67,77.397c27.488,27.489,54.977,54.978,82.467,82.466
				c3.467,3.467,9.26,3.467,12.729,0c27.486-27.488,54.977-54.978,82.466-82.466c8.214-8.214-4.514-20.942-12.729-12.728
				c-27.488,27.488-54.979,54.977-82.466,82.466c4.242,0,8.484,0,12.729,0c-27.489-27.489-54.979-54.978-82.467-82.466
				C69.184,56.455,56.455,69.184,64.67,77.397L64.67,77.397z"/>
		</g>
	</g>
	<g>
		<g>
			<path fill="#FFFFFF" stroke="#FFFFFF" stroke-miterlimit="10" d="M77.398,242.33c27.488-27.488,54.978-54.978,82.466-82.466
				c3.467-3.468,3.467-9.261,0-12.728c-27.489-27.489-54.978-54.979-82.466-82.467c-8.215-8.215-20.942,4.514-12.729,12.729
				c27.488,27.489,54.978,54.979,82.468,82.466c0-4.243,0-8.485,0-12.728c-27.49,27.488-54.979,54.977-82.468,82.465
				C56.455,237.816,69.184,250.543,77.398,242.33L77.398,242.33z"/>
		</g>
	</g>
	<g>
		<g>
			<path fill="#FFFFFF" stroke="#FFFFFF" stroke-miterlimit="10" d="M242.33,229.602c-27.489-27.488-54.979-54.977-82.466-82.465
				c-3.468-3.469-9.261-3.469-12.728,0c-27.49,27.488-54.979,54.977-82.468,82.465c-8.215,8.215,4.515,20.941,12.729,12.729
				c27.488-27.488,54.978-54.978,82.466-82.466c-4.243,0-8.485,0-12.728,0c27.487,27.488,54.977,54.978,82.465,82.466
				C237.816,250.543,250.544,237.816,242.33,229.602L242.33,229.602z"/>
		</g>
	</g>
	<g>
		<g>
			<path fill="#FFFFFF" stroke="#FFFFFF" stroke-miterlimit="10" d="M229.602,64.67c-27.488,27.488-54.979,54.978-82.465,82.467
				c-3.47,3.467-3.47,9.26,0,12.728c27.487,27.488,54.977,54.978,82.465,82.466c8.215,8.215,20.94-4.514,12.729-12.729
				c-27.489-27.488-54.979-54.977-82.466-82.465c0,4.242,0,8.484,0,12.728c27.487-27.489,54.977-54.978,82.466-82.466
				C250.544,69.184,237.816,56.455,229.602,64.67L229.602,64.67z"/>
		</g>
	</g>
</g>
</svg>
