<?xml version="1.0" encoding="utf-8"?>
<!-- Generator: Adobe Illustrator 16.0.3, SVG Export Plug-In . SVG Version: 6.00 Build 0)  -->
<!DOCTYPE svg PUBLIC "-//W3C//DTD SVG 1.1//EN" "http://www.w3.org/Graphics/SVG/1.1/DTD/svg11.dtd">
<svg version="1.1" id="Layer_1" xmlns="http://www.w3.org/2000/svg" xmlns:xlink="http://www.w3.org/1999/xlink" x="0px" y="0px"
	 width="294px" height="294px" viewBox="104.754 129.813 294 294" enable-background="new 104.754 129.813 294 294"
	 xml:space="preserve">
<circle fill="none" stroke="#333333" stroke-width="10" stroke-miterlimit="10" cx="251.754" cy="276.813" r="142"/>
<g>
	<g>
		<g>
			<path fill="#333333" d="M162.924,200.71c27.488,27.489,54.977,54.978,82.466,82.466c3.467,3.467,9.26,3.467,12.728,0
				c27.488-27.489,54.977-54.978,82.466-82.466c8.214-8.214-4.514-20.942-12.729-12.728c-27.488,27.488-54.977,54.977-82.465,82.466
				c4.243,0,8.485,0,12.728,0c-27.489-27.489-54.978-54.978-82.466-82.466C167.438,179.768,154.709,192.496,162.924,200.71
				L162.924,200.71z"/>
		</g>
	</g>
	<g>
		<g>
			<path fill="#333333" d="M175.652,365.643c27.489-27.489,54.978-54.978,82.466-82.466c3.467-3.468,3.467-9.261,0-12.728
				c-27.489-27.489-54.978-54.978-82.466-82.466c-8.214-8.215-20.942,4.513-12.728,12.728
				c27.488,27.489,54.977,54.978,82.466,82.466c0-4.243,0-8.485,0-12.728c-27.489,27.489-54.978,54.977-82.466,82.465
				C154.709,361.129,167.438,373.856,175.652,365.643L175.652,365.643z"/>
		</g>
	</g>
	<g>
		<g>
			<path fill="#333333" d="M340.584,352.914c-27.489-27.488-54.978-54.977-82.466-82.465c-3.468-3.468-9.261-3.468-12.728,0
				c-27.489,27.489-54.978,54.977-82.466,82.465c-8.215,8.215,4.513,20.942,12.728,12.729
				c27.489-27.489,54.978-54.978,82.466-82.466c-4.243,0-8.485,0-12.728,0c27.489,27.488,54.977,54.977,82.465,82.466
				C336.07,373.856,348.798,361.129,340.584,352.914L340.584,352.914z"/>
		</g>
	</g>
	<g>
		<g>
			<path fill="#333333" d="M327.855,187.983c-27.488,27.488-54.977,54.977-82.465,82.466c-3.468,3.467-3.468,9.26,0,12.728
				c27.489,27.488,54.977,54.977,82.465,82.466c8.215,8.214,20.942-4.514,12.729-12.729c-27.489-27.488-54.978-54.977-82.466-82.465
				c0,4.243,0,8.485,0,12.728c27.488-27.489,54.977-54.978,82.466-82.466C348.798,192.496,336.07,179.768,327.855,187.983
				L327.855,187.983z"/>
		</g>
	</g>
</g>
</svg>
