<?xml version="1.0" standalone="no"?>
<!DOCTYPE svg PUBLIC "-//W3C//DTD SVG 20010904//EN"
 "http://www.w3.org/TR/2001/REC-SVG-20010904/DTD/svg10.dtd">
<svg version="1.0" xmlns="http://www.w3.org/2000/svg"
 width="700.000000pt" height="700.000000pt" viewBox="0 0 700.000000 700.000000"
 preserveAspectRatio="xMidYMid meet">
<metadata>
Created by potrace 1.11, written by Peter Selinger 2001-2013
</metadata>
<g transform="translate(0.000000,700.000000) scale(0.100000,-0.100000)"
fill="#000000" stroke="none">
<path d="M2578 6844 l-46 -56 49 -73 c27 -41 49 -75 49 -77 0 -3 31 -58 68
-124 240 -420 401 -864 448 -1236 5 -37 3 -48 -7 -49 -8 0 -21 -2 -29 -3 -8
-2 -44 -6 -80 -10 -248 -25 -571 -121 -800 -236 -180 -91 -250 -134 -451 -279
-61 -45 -343 -334 -410 -421 -36 -47 -85 -116 -109 -155 -55 -89 -220 -411
-220 -430 0 -8 -4 -15 -10 -15 -5 0 -10 -7 -10 -15 0 -8 -4 -23 -10 -33 -40
-69 -155 -411 -176 -522 -3 -14 -10 -45 -15 -70 -36 -157 -44 -255 -44 -530 0
-213 8 -377 21 -443 2 -11 6 -45 10 -76 3 -31 8 -59 10 -62 1 -3 6 -28 10 -55
3 -27 8 -52 10 -55 2 -3 6 -20 9 -38 3 -19 22 -99 41 -180 20 -80 37 -153 39
-161 55 -256 251 -759 376 -965 10 -16 23 -39 28 -50 8 -19 123 -195 142 -219
5 -6 39 -48 75 -94 l66 -82 712 2 711 3 1 530 c2 597 -2 569 80 702 54 88 118
146 203 186 57 27 77 31 168 34 90 2 112 -1 168 -22 133 -50 265 -168 307
-275 21 -54 22 -66 24 -590 1 -294 3 -543 3 -552 1 -17 40 -18 681 -18 502 0
686 3 707 12 141 60 491 711 652 1213 37 116 98 342 107 399 3 22 9 49 14 60
4 12 8 26 8 31 1 10 15 106 17 115 2 7 15 97 20 135 2 17 7 62 10 100 4 39 9
77 12 85 3 8 7 143 8 300 4 313 -7 442 -60 670 -134 583 -349 1007 -674 1330
-64 63 -132 129 -151 145 -297 258 -722 471 -1090 546 -85 18 -95 19 -189 34
-52 8 -95 16 -96 17 -1 2 -10 34 -19 71 -68 272 -215 589 -384 826 -149 210
-372 434 -573 574 -131 92 -327 207 -352 207 -7 0 -33 -25 -59 -56z"/>
</g>
</svg>
